<svg width="26" height="25" viewBox="0 0 26 25" fill="none" xmlns="http://www.w3.org/2000/svg">
<rect width="12.0463" height="14.4182" transform="matrix(0.73261 -0.680649 0.65869 0.752414 1 9.19922)" fill="url(#paint0_linear_195_7489)"/>
<rect width="12.0463" height="14.4182" transform="matrix(0.73261 -0.680649 0.65869 0.752414 1 9.19922)" fill="url(#paint1_linear_195_7489)"/>
<path d="M2.53049 6.96561L1.64079 7.75114C0.913927 8.39291 0.834036 9.5178 1.46177 10.2598L8.83434 18.9755L8.91068 18.9109L8.83434 18.9755C8.9205 19.0774 9.04269 19.1302 9.16588 19.1302C9.26763 19.1302 9.36984 19.0942 9.45236 19.0213C9.63429 18.8606 9.65381 18.5811 9.49718 18.3959L9.49717 18.3959L2.12455 9.68032C2.12455 9.68031 2.12455 9.68031 2.12455 9.68031C1.80987 9.30822 1.85041 8.74331 2.21405 8.42226L2.21405 8.42226L3.34902 7.42007C3.34903 7.42006 3.34904 7.42006 3.34905 7.42005C3.3728 7.39909 3.39379 7.3761 3.41197 7.35156L9.46303 2.02169L9.46312 2.02161C9.63916 1.86617 9.8629 1.79046 10.094 1.80782L10.0941 1.80782C10.3253 1.82502 10.5362 1.93299 10.6886 2.11302L11.1888 2.70443C11.1888 2.70443 11.1888 2.70444 11.1888 2.70444C11.3465 2.89088 11.6237 2.91197 11.8068 2.7502L2.53049 6.96561ZM2.53049 6.96561C2.5407 6.9538 2.55179 6.94253 2.56382 6.9319L2.56387 6.93186L8.88987 1.35055C8.88988 1.35055 8.88989 1.35054 8.8899 1.35053C9.2422 1.03951 9.69287 0.886965 10.1579 0.921373L10.1579 0.921375C10.6231 0.955939 11.0471 1.1738 11.3513 1.53341L11.275 1.598L11.3513 1.53341L11.8516 2.12485L11.7753 2.18943L11.8516 2.12485C12.0083 2.3101 11.9887 2.58962 11.8069 2.75019L2.53049 6.96561ZM2.5578 7.98532L2.14786 8.3473C1.74323 8.70455 1.69857 9.33149 2.0482 9.74489L9.42082 18.4605C9.54253 18.6044 9.52709 18.8219 9.38617 18.9463L2.5578 7.98532ZM2.5578 7.98532C2.57307 7.99893 2.59156 8.00693 2.60963 8.00967C2.6318 8.01303 2.64914 8.00807 2.6561 8.00579C2.66443 8.00307 2.67073 7.99981 2.67419 7.99789C2.68552 7.9916 2.69409 7.98389 2.69618 7.98204L2.5578 7.98532Z" fill="#042F6C" stroke="#042F6C" stroke-width="0.2"/>
<rect width="11.9229" height="15.4359" transform="matrix(0.942161 -0.335161 0.317819 0.948151 6.70117 5.95898)" fill="url(#paint2_linear_195_7489)"/>
<rect width="11.9229" height="15.4359" transform="matrix(0.942161 -0.335161 0.317819 0.948151 6.70117 5.95898)" fill="url(#paint3_linear_195_7489)"/>
<path d="M16.6559 1.99567L16.6559 1.99567L7.57211 5.10851C7.57211 5.10851 7.57211 5.10851 7.5721 5.10851C6.65933 5.42122 6.16871 6.43235 6.47349 7.36086L6.56851 7.32967L6.4735 7.36086L10.6999 20.2346C10.7607 20.4198 10.9305 20.5384 11.1145 20.5384C11.161 20.5384 11.2081 20.5308 11.2541 20.5151L11.2542 20.515C11.4839 20.4363 11.605 20.184 11.5292 19.9532L7.30279 7.07934L7.30279 7.07933C7.14927 6.61184 7.39746 6.10622 7.85128 5.95068L16.9351 2.83787L16.9351 2.83787C17.3879 2.6827 17.8824 2.93216 18.0355 3.3988L18.0355 3.39881L18.1554 3.7638L18.1554 3.76381C18.2315 3.99556 18.4788 4.12334 18.7096 4.04424L16.6559 1.99567ZM16.6559 1.99567C17.5697 1.68252 18.5597 2.18796 18.8648 3.1174L18.8648 3.11741M16.6559 1.99567L18.8648 3.11741M18.8648 3.11741L18.9846 3.48239M18.8648 3.11741L18.9846 3.48239M18.9846 3.48239C18.9846 3.48239 18.9846 3.48239 18.9846 3.4824M18.9846 3.48239L18.9846 3.4824M18.9846 3.4824C19.0604 3.7132 18.9394 3.9655 18.7096 4.04424L18.9846 3.4824Z" fill="#042F6C" stroke="#042F6C" stroke-width="0.2"/>
<rect x="12.5342" y="5.68066" width="11.8842" height="15.8436" fill="url(#paint4_linear_195_7489)"/>
<path d="M13.7748 4.96152H23.3559C24.3197 4.96152 25.1 5.76179 25.1 6.74115V20.3199C25.1 21.2992 24.3197 22.0996 23.3559 22.0996H13.7748C12.8109 22.0996 12.0307 21.2992 12.0307 20.3199V6.74115C12.0307 5.7618 12.8109 4.96152 13.7748 4.96152ZM12.9049 20.3199C12.9049 20.813 13.2973 21.2107 13.7748 21.2107H23.3559C23.8335 21.2107 24.2258 20.813 24.2258 20.3199V6.74115C24.2258 6.24797 23.8334 5.85032 23.3559 5.85032H13.7748C13.2972 5.85032 12.9049 6.24802 12.9049 6.74115V20.3199Z" fill="#042F6C" stroke="#042F6C" stroke-width="0.2"/>
<path d="M14.7705 15.0596H22.4603" stroke="#042F6C" stroke-width="0.3" stroke-linecap="round"/>
<path d="M15.1201 17.9404H22.1108" stroke="#042F6C" stroke-width="0.3" stroke-linecap="round"/>
<path d="M15.1201 19.0215H22.1108" stroke="#042F6C" stroke-width="0.3" stroke-linecap="round"/>
<path d="M15.1201 16.5H19.6641" stroke="#042F6C" stroke-width="0.3" stroke-linecap="round"/>
<path d="M20.7129 16.5H22.111" stroke="#042F6C" stroke-width="0.3" stroke-linecap="round"/>
<path d="M15.3351 9.43267C15.2778 8.45182 16.0793 7.75024 17.0172 7.45767C17.0962 7.43304 17.1806 7.40378 17.268 7.37143C18.1573 7.04204 19.1334 7.04204 20.0228 7.37143C20.1101 7.40378 20.1946 7.43304 20.2735 7.45767C21.2115 7.75024 22.0129 8.45182 21.9556 9.43267C21.8691 10.9132 21.3837 12.998 19.4695 13.9927C18.9557 14.2597 18.3351 14.2597 17.8212 13.9927C15.907 12.998 15.4217 10.9132 15.3351 9.43267Z" fill="#C8D1EA"/>
<path fill-rule="evenodd" clip-rule="evenodd" d="M18.215 13.1769C18.0741 13.1356 17.9383 13.0735 17.8128 12.9905C17.8093 12.9882 17.8057 12.9858 17.8021 12.9834L18.9714 8.05688C19.1199 8.06971 19.2679 8.09127 19.4148 8.12157L18.215 13.1769ZM18.5155 8.04492L17.4163 12.6761C17.1192 12.3958 16.8946 12.0677 16.7256 11.7205L17.5613 8.19953C17.8742 8.1073 18.1944 8.05577 18.5155 8.04492Z" fill="white"/>
<path d="M16.2465 9.66896C16.2105 8.95753 16.789 8.44774 17.4668 8.22875V8.22875V8.22875C18.2367 7.98002 19.055 7.98002 19.8248 8.22875V8.22875V8.22875C20.5027 8.44774 21.0811 8.95753 21.0451 9.66896C20.992 10.7169 20.6848 12.191 19.4769 12.99C18.9774 13.3203 18.3142 13.3203 17.8147 12.99C16.6068 12.191 16.2996 10.7169 16.2465 9.66896Z" stroke="#2571BC" stroke-width="0.5"/>
<defs>
<linearGradient id="paint0_linear_195_7489" x1="-0.060419" y1="0.254621" x2="8.99386" y2="10.8171" gradientUnits="userSpaceOnUse">
<stop offset="0.119792" stop-color="#9ECFFF"/>
<stop offset="1" stop-color="white" stop-opacity="0"/>
</linearGradient>
<linearGradient id="paint1_linear_195_7489" x1="-0.060419" y1="0.254621" x2="8.99386" y2="10.8171" gradientUnits="userSpaceOnUse">
<stop offset="0.119792" stop-color="#9ECFFF"/>
<stop offset="1" stop-color="white" stop-opacity="0"/>
</linearGradient>
<linearGradient id="paint2_linear_195_7489" x1="-0.0597998" y1="0.272592" x2="9.72089" y2="10.821" gradientUnits="userSpaceOnUse">
<stop offset="0.119792" stop-color="#9ECFFF"/>
<stop offset="1" stop-color="white" stop-opacity="0"/>
</linearGradient>
<linearGradient id="paint3_linear_195_7489" x1="-0.0597998" y1="0.272592" x2="9.72089" y2="10.821" gradientUnits="userSpaceOnUse">
<stop offset="0.119792" stop-color="#9ECFFF"/>
<stop offset="1" stop-color="white" stop-opacity="0"/>
</linearGradient>
<linearGradient id="paint4_linear_195_7489" x1="18.4763" y1="5.68066" x2="18.4763" y2="21.5243" gradientUnits="userSpaceOnUse">
<stop offset="0.119792" stop-color="#9ECFFF"/>
<stop offset="1" stop-color="white" stop-opacity="0"/>
</linearGradient>
</defs>
</svg>
