<svg width="442" height="442" viewBox="0 0 442 442" fill="none" xmlns="http://www.w3.org/2000/svg">
<circle cx="221" cy="221" r="221" fill="url(#paint0_radial_47_4437)" fill-opacity="0.44"/>
<circle cx="222" cy="220" r="76" fill="url(#paint1_radial_47_4437)" fill-opacity="0.44"/>
<rect x="158.5" y="167.5" width="125.574" height="104.145" rx="3.5" fill="url(#paint2_linear_47_4437)" stroke="#042F6C" stroke-width="3"/>
<path d="M174.411 187.427C176.63 187.427 178.429 185.629 178.429 183.41C178.429 181.19 176.63 179.392 174.411 179.392C172.192 179.392 170.393 181.19 170.393 183.41C170.393 185.629 172.192 187.427 174.411 187.427Z" fill="#4FA7FF"/>
<path d="M187.804 187.427C190.023 187.427 191.822 185.629 191.822 183.41C191.822 181.19 190.023 179.392 187.804 179.392C185.585 179.392 183.786 181.19 183.786 183.41C183.786 185.629 185.585 187.427 187.804 187.427Z" fill="white"/>
<path d="M201.197 187.427C203.416 187.427 205.215 185.629 205.215 183.41C205.215 181.19 203.416 179.392 201.197 179.392C198.978 179.392 197.179 181.19 197.179 183.41C197.179 185.629 198.978 187.427 201.197 187.427Z" fill="#4FA7FF"/>
<path fill-rule="evenodd" clip-rule="evenodd" d="M225.675 195.811L212.379 243.338C213.317 244.618 214.365 245.843 215.523 247C216.916 248.393 218.407 249.628 219.975 250.705L235.989 193.466C232.471 193.659 228.98 194.44 225.675 195.811ZM240.789 193.569L224.131 253.111C225.546 253.79 227.001 254.357 228.484 254.812L245.394 194.368C243.877 193.987 242.338 193.72 240.789 193.569Z" fill="white"/>
<path d="M263.614 247.425L263.463 247.6L263.627 247.764L267.81 251.947L267.935 252.072L268.095 251.996C270.989 250.614 274.56 251.121 276.957 253.518L295.898 272.459C298.938 275.499 298.938 280.429 295.898 283.47C292.857 286.51 287.928 286.51 284.887 283.47L265.946 264.529C263.55 262.132 263.042 258.561 264.424 255.667L264.501 255.507L264.376 255.382L260.192 251.199L260.028 251.035L259.853 251.186C246.27 262.848 225.781 262.245 212.912 249.376C199.411 235.875 199.411 213.986 212.912 200.484C226.413 186.983 248.303 186.983 261.804 200.484C274.673 213.353 275.276 233.842 263.614 247.425ZM256.476 244.048C267.034 233.49 267.034 216.371 256.476 205.813C245.918 195.255 228.799 195.255 218.241 205.813C207.683 216.371 207.683 233.49 218.241 244.048C228.799 254.606 245.918 254.606 256.476 244.048Z" fill="#C8D1EA" stroke="#042F6C" stroke-width="0.5"/>
<defs>
<radialGradient id="paint0_radial_47_4437" cx="0" cy="0" r="1" gradientUnits="userSpaceOnUse" gradientTransform="translate(221 221) rotate(90) scale(221)">
<stop offset="0.458333" stop-color="#A0D0FF"/>
<stop offset="1" stop-color="white"/>
</radialGradient>
<radialGradient id="paint1_radial_47_4437" cx="0" cy="0" r="1" gradientUnits="userSpaceOnUse" gradientTransform="translate(222 220) rotate(90) scale(76)">
<stop offset="0.458333" stop-color="#A0D0FF"/>
<stop offset="1" stop-color="white"/>
</radialGradient>
<linearGradient id="paint2_linear_47_4437" x1="221.287" y1="166" x2="221.287" y2="273.145" gradientUnits="userSpaceOnUse">
<stop stop-color="#A3D1FF"/>
<stop offset="1" stop-color="#2571BC" stop-opacity="0"/>
</linearGradient>
</defs>
</svg>
