<svg width="442" height="442" viewBox="0 0 442 442" fill="none" xmlns="http://www.w3.org/2000/svg">
<circle cx="221" cy="221" r="221" fill="url(#paint0_radial_47_4552)" fill-opacity="0.44"/>
<circle cx="222" cy="220" r="76" fill="url(#paint1_radial_47_4552)" fill-opacity="0.44"/>
<path d="M270.623 239.192L270.875 239.347L270.986 239.073C273.502 232.854 274.794 226.208 274.788 219.5C274.781 209.598 271.966 199.901 266.67 191.534C261.373 183.168 253.813 176.475 244.865 172.233L244.163 171.899L244.54 172.58L244.752 172.964L244.753 172.965C245.774 174.784 246.144 176.896 245.803 178.953C245.462 181.011 244.43 182.891 242.877 184.282L242.876 184.283L226.963 198.676C226.963 198.676 226.963 198.676 226.963 198.676C226.434 199.15 225.855 199.563 225.235 199.909C225.235 199.909 225.235 199.909 225.234 199.909L217.991 203.906L217.991 203.906C216.628 204.659 215.098 205.055 213.541 205.058H203.66H203.514L203.442 205.184L198.818 213.309L198.65 213.605L198.983 213.677L203.713 214.7L203.714 214.7C205.08 214.994 206.361 215.596 207.458 216.461C208.556 217.326 209.441 218.431 210.046 219.691L210.046 219.692L212.293 224.34L212.361 224.481H212.518H217.675H217.818L217.891 224.357C218.81 222.779 220.175 221.508 221.814 220.703C223.453 219.898 225.293 219.595 227.103 219.831C227.104 219.831 227.104 219.831 227.104 219.831L240.597 221.652L240.597 221.652C241.872 221.823 243.095 222.26 244.189 222.936L244.19 222.936L270.623 239.192ZM170.212 219.5V219.5C170.234 233.159 175.594 246.269 185.148 256.031C194.701 265.793 207.692 271.435 221.347 271.753L221.558 271.758L221.598 271.551L222.745 265.637L222.77 265.509L222.679 265.415L211.083 253.47L211.08 253.468L211.001 253.388C209.781 252.066 208.975 250.414 208.682 248.639C208.39 246.861 208.625 245.037 209.358 243.392L209.358 243.392L213.633 233.794L213.79 233.442H213.405H212.531C210.803 233.438 209.111 232.95 207.645 232.034C206.18 231.118 205.001 229.811 204.239 228.261C204.239 228.26 204.239 228.26 204.239 228.26L201.987 223.578L201.934 223.468L201.814 223.442L189.142 220.716L189.141 220.716C187.633 220.393 186.231 219.697 185.062 218.691C183.893 217.685 182.996 216.402 182.451 214.959L175.746 197.059L175.539 196.509L175.286 197.039C171.938 204.053 170.204 211.728 170.212 219.5ZM188.471 168.572C198.544 161.842 210.386 158.25 222.5 158.25C238.739 158.267 254.308 164.726 265.791 176.209C277.274 187.692 283.733 203.261 283.75 219.5C283.75 231.614 280.158 243.456 273.428 253.529C266.697 263.601 257.131 271.452 245.939 276.088C234.747 280.723 222.432 281.936 210.551 279.573C198.669 277.21 187.756 271.376 179.19 262.81C170.624 254.244 164.79 243.331 162.427 231.449C160.064 219.568 161.277 207.253 165.912 196.061C170.548 184.869 178.399 175.303 188.471 168.572Z" fill="url(#paint2_linear_47_4552)" stroke="#042F6C" stroke-width="0.5"/>
<path d="M285.044 219.227C285.044 253.619 257.164 281.499 222.772 281.499C188.38 281.499 160.5 253.619 160.5 219.227C160.5 184.835 188.38 156.955 222.772 156.955C257.164 156.955 285.044 184.835 285.044 219.227Z" stroke="#042F6C" stroke-width="3"/>
<path d="M243.692 225.354C243.826 224.02 244.882 223.007 246.21 222.82C249.352 222.378 255.143 221.461 259.31 220.199C263.931 218.8 270.551 215.766 273.338 214.452C274.173 214.058 275.135 214.058 275.97 214.452C278.757 215.766 285.377 218.8 289.999 220.199C294.165 221.461 299.957 222.378 303.099 222.82C304.427 223.007 305.482 224.02 305.617 225.354C306.586 234.968 308.205 272.716 275.496 282.75C274.958 282.915 274.35 282.915 273.812 282.75C241.104 272.716 242.723 234.968 243.692 225.354Z" fill="#C8D1EA"/>
<path fill-rule="evenodd" clip-rule="evenodd" d="M270.532 272.82C269.164 272.201 267.895 271.503 266.717 270.74L278.113 224.133C279.29 224.678 280.654 225.289 282.016 225.854L270.532 272.82ZM274.097 222.876L263.081 267.928C260.282 265.363 258.165 262.36 256.572 259.183L264.454 226.948C267.489 225.889 271.302 224.103 273.296 223.137C273.553 223.013 273.822 222.926 274.097 222.876Z" fill="white"/>
<path d="M252.181 231.683C252.297 230.346 253.349 229.328 254.676 229.127C257.036 228.769 260.782 228.119 263.542 227.253C266.682 226.269 271.096 224.206 273.296 223.14C274.154 222.725 275.154 222.725 276.012 223.14C278.212 224.206 282.626 226.269 285.765 227.253C288.526 228.119 292.272 228.769 294.631 229.127C295.959 229.328 297.011 230.346 297.127 231.683C297.816 239.666 298.369 266.624 275.52 274.084C274.966 274.265 274.341 274.265 273.788 274.084C250.939 266.624 251.491 239.666 252.181 231.683Z" stroke="#2571BC" stroke-width="2"/>
<defs>
<radialGradient id="paint0_radial_47_4552" cx="0" cy="0" r="1" gradientUnits="userSpaceOnUse" gradientTransform="translate(221 221) rotate(90) scale(221)">
<stop offset="0.458333" stop-color="#A0D0FF"/>
<stop offset="1" stop-color="white"/>
</radialGradient>
<radialGradient id="paint1_radial_47_4552" cx="0" cy="0" r="1" gradientUnits="userSpaceOnUse" gradientTransform="translate(222 220) rotate(90) scale(76)">
<stop offset="0.458333" stop-color="#A0D0FF"/>
<stop offset="1" stop-color="white"/>
</radialGradient>
<linearGradient id="paint2_linear_47_4552" x1="188.738" y1="157.966" x2="258.985" y2="304.994" gradientUnits="userSpaceOnUse">
<stop stop-color="#9FC7F0"/>
<stop offset="1" stop-color="#BDD7F1" stop-opacity="0"/>
</linearGradient>
</defs>
</svg>
