<svg width="442" height="442" viewBox="0 0 442 442" fill="none" xmlns="http://www.w3.org/2000/svg">
<g clip-path="url(#clip0_65_2123)">
<path d="M221 442C343.055 442 442 343.055 442 221C442 98.9451 343.055 0 221 0C98.9451 0 0 98.9451 0 221C0 343.055 98.9451 442 221 442Z" fill="url(#paint0_radial_65_2123)" fill-opacity="0.44"/>
<path d="M222 296C263.974 296 298 261.974 298 220C298 178.026 263.974 144 222 144C180.026 144 146 178.026 146 220C146 261.974 180.026 296 222 296Z" fill="url(#paint1_radial_65_2123)" fill-opacity="0.44"/>
<path d="M158.49 211.583H159.255L159.704 210.964L192.088 166.37L192.089 166.368C192.936 165.206 194.037 164.254 195.308 163.585C196.58 162.914 197.989 162.545 199.426 162.504C200.863 162.463 202.291 162.752 203.599 163.349C204.907 163.945 206.061 164.834 206.972 165.946L206.984 165.961L206.996 165.975L215.757 176.134L215.761 176.139L215.878 176.272C216.522 177.074 217.338 177.722 218.265 178.169C219.202 178.621 220.23 178.856 221.27 178.856C222.311 178.856 223.338 178.621 224.276 178.169C225.203 177.722 226.018 177.074 226.663 176.272L226.779 176.139L226.783 176.134L235.545 165.975L235.557 165.961L235.569 165.946C236.48 164.834 237.634 163.945 238.942 163.349C240.25 162.752 241.678 162.463 243.115 162.504C244.552 162.545 245.961 162.914 247.233 163.585C248.504 164.254 249.605 165.206 250.451 166.368L250.453 166.37L282.837 210.964L283.286 211.583H284.051H303.086C304.135 211.583 305.141 212 305.883 212.741C306.624 213.483 307.041 214.489 307.041 215.537C307.041 216.586 306.624 217.592 305.883 218.334C305.141 219.075 304.135 219.492 303.086 219.492H139.454C138.406 219.492 137.4 219.075 136.658 218.334C135.917 217.592 135.5 216.586 135.5 215.537C135.5 214.489 135.917 213.483 136.658 212.741C137.4 212 138.406 211.583 139.454 211.583H158.49Z" fill="url(#paint2_linear_65_2123)" stroke="#042F6C" stroke-width="3"/>
<path d="M234.644 263.128C234.306 262.889 233.584 263.128 233.584 263.128ZM234.644 263.128C234.306 262.889 233.584 263.128 233.584 263.128ZM233.584 263.128H208.957H207.896M233.584 263.128H207.896ZM207.896 263.128L207.543 264.128ZM207.896 263.128L207.543 264.128ZM207.543 264.128C205.657 269.468 201.872 273.926 196.908 276.653C191.945 279.379 186.152 280.183 180.634 278.91C175.116 277.638 170.26 274.378 166.992 269.753C163.724 265.128 162.274 259.462 162.917 253.836C163.561 248.21 166.253 243.018 170.481 239.25C174.709 235.483 180.175 233.404 185.838 233.41C191.501 233.416 196.963 235.507 201.182 239.284C205.402 243.061 208.083 248.259 208.714 253.886L208.864 255.219M207.543 264.128L208.864 255.219ZM208.864 255.219H210.205ZM208.864 255.219H210.205ZM210.205 255.219H232.336H233.678M210.205 255.219H233.678ZM233.678 255.219L233.827 253.886ZM233.678 255.219L233.827 253.886Z" fill="url(#paint3_linear_65_2123)"/>
<path d="M234.644 263.128C234.982 263.367 234.998 264.128 234.998 264.128C236.406 268.111 238.882 271.63 242.156 274.301C245.429 276.972 249.374 278.692 253.559 279.272C257.744 279.853 262.008 279.272 265.884 277.592C269.761 275.913 273.102 273.2 275.541 269.751C277.98 266.301 279.424 262.247 279.715 258.033C280.006 253.818 279.132 249.604 277.19 245.852C275.248 242.1 272.5 239 268.702 236.758C264.904 234.516 260.5 233.5 254.5 233.5C248.5 233.5 241.364 239.271 241.364 239.271C237.14 243.05 234.456 248.253 233.827 253.886L233.678 255.219M234.644 263.128C234.306 262.889 233.584 263.128 233.584 263.128M234.644 263.128L233.678 255.219M233.584 263.128H208.957H207.896M233.584 263.128H207.896M207.896 263.128L207.543 264.128M207.543 264.128C205.657 269.468 201.872 273.926 196.908 276.653C191.945 279.379 186.152 280.183 180.634 278.91C175.116 277.638 170.26 274.378 166.992 269.753C163.724 265.128 162.274 259.462 162.917 253.836C163.561 248.21 166.253 243.018 170.481 239.25C174.709 235.483 180.175 233.404 185.838 233.41C191.501 233.416 196.963 235.507 201.182 239.284C205.402 243.061 208.083 248.259 208.714 253.886L208.864 255.219M207.543 264.128L208.864 255.219M208.864 255.219H210.205M210.205 255.219H232.336H233.678M210.205 255.219H233.678" stroke="#042F6C" stroke-width="3"/>
<path fill-rule="evenodd" clip-rule="evenodd" d="M178.337 240.394L170.089 266.172C170.363 266.481 170.586 266.838 170.811 267.198C171.132 267.71 171.456 268.229 171.936 268.626C172.24 268.877 172.565 269.17 172.902 269.473C173.659 270.156 174.477 270.892 175.244 271.327L186.586 238.332C179.357 238.759 178.35 240.357 178.337 240.394ZM189.265 238.639L177.306 272.358C178.307 272.755 179.351 273.123 180.399 273.389L192.773 239.362C191.74 238.935 190.36 238.728 189.265 238.639Z" fill="white"/>
</g>
<defs>
<radialGradient id="paint0_radial_65_2123" cx="0" cy="0" r="1" gradientUnits="userSpaceOnUse" gradientTransform="translate(221 221) rotate(90) scale(221)">
<stop offset="0.458333" stop-color="#A0D0FF"/>
<stop offset="1" stop-color="white"/>
</radialGradient>
<radialGradient id="paint1_radial_65_2123" cx="0" cy="0" r="1" gradientUnits="userSpaceOnUse" gradientTransform="translate(222 220) rotate(90) scale(76)">
<stop offset="0.458333" stop-color="#A0D0FF"/>
<stop offset="1" stop-color="white"/>
</radialGradient>
<linearGradient id="paint2_linear_65_2123" x1="220.613" y1="166.156" x2="220.613" y2="220.804" gradientUnits="userSpaceOnUse">
<stop stop-color="#A1CCF7"/>
<stop offset="1" stop-color="#BDD7F1" stop-opacity="0"/>
</linearGradient>
<linearGradient id="paint3_linear_65_2123" x1="220.613" y1="238.334" x2="220.613" y2="296.076" gradientUnits="userSpaceOnUse">
<stop offset="0.0903385" stop-color="#A1CCF7"/>
<stop offset="1" stop-color="#BDD7F1" stop-opacity="0"/>
</linearGradient>
<clipPath id="clip0_65_2123">
<rect width="442" height="442" fill="white"/>
</clipPath>
</defs>
</svg>
