<svg width="442" height="442" viewBox="0 0 442 442" fill="none" xmlns="http://www.w3.org/2000/svg">
<circle cx="221" cy="221" r="221" fill="url(#paint0_radial_47_4507)" fill-opacity="0.44"/>
<circle cx="222" cy="220" r="76" fill="url(#paint1_radial_47_4507)" fill-opacity="0.44"/>
<rect x="158.5" y="166.5" width="129.632" height="107.526" rx="3.5" fill="url(#paint2_linear_47_4507)" stroke="#042F6C" stroke-width="3"/>
<path d="M189.579 236.267C190.765 235.082 192.237 234.222 193.853 233.772C195.468 233.321 197.173 233.295 198.801 233.696L198.989 233.742L199.081 233.572L207.403 218.115L207.495 217.946L207.354 217.814C207.259 217.726 207.169 217.642 207.082 217.554L207.082 217.554C206.176 216.649 205.458 215.574 204.968 214.391C204.477 213.208 204.225 211.94 204.225 210.659C204.225 209.379 204.477 208.111 204.968 206.928C205.458 205.745 206.176 204.67 207.082 203.764L207.082 203.764C208.759 202.082 210.993 201.07 213.364 200.918C215.735 200.767 218.079 201.486 219.957 202.941C221.835 204.396 223.117 206.486 223.563 208.82C224.008 211.153 223.587 213.569 222.377 215.613L222.278 215.78L222.416 215.917L228.722 222.224L228.858 222.36L229.025 222.263C231.222 220.975 233.834 220.593 236.308 221.196L236.496 221.242L236.588 221.072L244.909 205.615L245.001 205.446L244.86 205.314C244.835 205.291 244.811 205.269 244.787 205.246C244.716 205.181 244.649 205.119 244.585 205.054L244.408 205.231L244.585 205.054C243.679 204.149 242.961 203.074 242.471 201.891C241.981 200.708 241.728 199.44 241.728 198.159C241.728 196.879 241.981 195.611 242.471 194.428C242.961 193.245 243.679 192.17 244.585 191.264L244.408 191.087L244.585 191.264C246.413 189.436 248.894 188.408 251.48 188.408C254.066 188.408 256.546 189.436 258.375 191.264L258.552 191.087L258.375 191.264C260.204 193.093 261.231 195.573 261.231 198.159C261.231 200.671 260.262 203.082 258.532 204.894L258.375 205.052C257.47 205.959 256.395 206.679 255.211 207.169C254.028 207.66 252.758 207.911 251.477 207.909H251.477C250.692 207.909 249.911 207.815 249.148 207.629L248.961 207.583L248.869 207.753L240.547 223.21L240.456 223.379L240.597 223.511C240.691 223.599 240.782 223.683 240.869 223.77C242.158 225.06 243.06 226.685 243.472 228.461C243.884 230.238 243.789 232.094 243.199 233.819C242.609 235.545 241.547 237.07 240.133 238.222C238.72 239.374 237.012 240.106 235.203 240.336C233.394 240.566 231.557 240.284 229.9 239.522C228.244 238.761 226.834 237.549 225.831 236.027C224.828 234.504 224.272 232.73 224.227 230.907C224.181 229.084 224.648 227.285 225.573 225.714L225.672 225.548L225.535 225.411L219.229 219.104L219.092 218.968L218.925 219.066C217.425 219.947 215.717 220.411 213.977 220.409H213.977C213.191 220.41 212.408 220.317 211.645 220.132L211.458 220.087L211.366 220.256L203.044 235.706L202.953 235.876L203.094 236.008C203.118 236.031 203.143 236.053 203.166 236.075C203.237 236.141 203.304 236.203 203.369 236.267C204.732 237.631 205.66 239.368 206.036 241.26C206.412 243.151 206.219 245.111 205.481 246.893C204.743 248.674 203.494 250.197 201.89 251.268C200.287 252.339 198.402 252.911 196.474 252.911C194.545 252.911 192.66 252.339 191.057 251.268C189.454 250.197 188.204 248.674 187.466 246.893C186.728 245.111 186.535 243.151 186.911 241.26C187.287 239.368 188.215 237.631 189.579 236.267Z" fill="white" stroke="#042F6C" stroke-width="0.5"/>
<path d="M254.21 228.917C254.343 227.582 255.4 226.572 256.728 226.385C259.801 225.951 265.394 225.062 269.425 223.841C273.907 222.484 280.319 219.549 283.053 218.26C283.888 217.866 284.849 217.866 285.685 218.26C288.418 219.549 294.83 222.484 299.312 223.841C303.343 225.062 308.936 225.951 312.009 226.385C313.338 226.572 314.394 227.582 314.527 228.917C315.471 238.365 316.979 274.988 285.211 284.75C284.673 284.915 284.065 284.915 283.527 284.75C251.758 274.988 253.266 238.365 254.21 228.917Z" fill="#C8D1EA"/>
<path fill-rule="evenodd" clip-rule="evenodd" d="M280.354 275.084C279.022 274.481 277.786 273.802 276.639 273.058L287.737 227.67C288.883 228.201 290.211 228.796 291.538 229.345L280.354 275.084ZM283.824 226.454L273.098 270.32C270.372 267.822 268.31 264.898 266.759 261.804L274.435 230.41C277.372 229.386 281.057 227.662 283.009 226.718C283.27 226.591 283.544 226.504 283.824 226.454Z" fill="white"/>
<path d="M262.478 235.086C262.592 233.748 263.645 232.727 264.973 232.525C267.274 232.174 270.882 231.545 273.547 230.709C276.588 229.756 280.854 227.764 283.009 226.722C283.867 226.307 284.87 226.307 285.728 226.722C287.883 227.764 292.149 229.756 295.189 230.709C297.855 231.545 301.463 232.174 303.764 232.525C305.092 232.727 306.145 233.748 306.259 235.086C306.928 242.935 307.403 269.052 285.234 276.309C284.681 276.49 284.056 276.49 283.503 276.309C261.333 269.052 261.809 242.935 262.478 235.086Z" stroke="#2571BC" stroke-width="2"/>
<defs>
<radialGradient id="paint0_radial_47_4507" cx="0" cy="0" r="1" gradientUnits="userSpaceOnUse" gradientTransform="translate(221 221) rotate(90) scale(221)">
<stop offset="0.458333" stop-color="#A0D0FF"/>
<stop offset="1" stop-color="white"/>
</radialGradient>
<radialGradient id="paint1_radial_47_4507" cx="0" cy="0" r="1" gradientUnits="userSpaceOnUse" gradientTransform="translate(222 220) rotate(90) scale(76)">
<stop offset="0.458333" stop-color="#A0D0FF"/>
<stop offset="1" stop-color="white"/>
</radialGradient>
<linearGradient id="paint2_linear_47_4507" x1="223.316" y1="165" x2="223.316" y2="275.526" gradientUnits="userSpaceOnUse">
<stop stop-color="#9FC8F2"/>
<stop offset="1" stop-color="#2571BC" stop-opacity="0"/>
</linearGradient>
</defs>
</svg>
