<svg width="141" height="141" viewBox="0 0 141 141" fill="none" xmlns="http://www.w3.org/2000/svg">
<circle cx="70.5" cy="70.5" r="70.5" fill="url(#paint0_radial_366_2781)" fill-opacity="0.44"/>
<circle cx="70" cy="70" r="24" fill="url(#paint1_radial_366_2781)" fill-opacity="0.44"/>
<path d="M40 49C40 43.4771 44.4772 39 50 39H88.3923C93.9152 39 98.3923 43.4772 98.3923 49V71.2458C98.3923 82.2915 89.438 91.2458 78.3923 91.2458H60C48.9543 91.2458 40 82.2915 40 71.2458V49Z" fill="url(#paint2_linear_366_2781)"/>
<path fill-rule="evenodd" clip-rule="evenodd" d="M88.3923 42H50C46.134 42 43 45.134 43 49V71.2458C43 80.6346 50.6112 88.2458 60 88.2458H78.3923C87.7812 88.2458 95.3923 80.6347 95.3923 71.2458V49C95.3923 45.134 92.2583 42 88.3923 42ZM50 39C44.4772 39 40 43.4771 40 49V71.2458C40 82.2915 48.9543 91.2458 60 91.2458H78.3923C89.438 91.2458 98.3923 82.2915 98.3923 71.2458V49C98.3923 43.4772 93.9152 39 88.3923 39H50Z" fill="#042F6C"/>
<path d="M43.0733 88.501L54.2942 95.215C54.9593 95.6129 55.3664 96.331 55.3664 97.106C55.3664 99.8106 53.1739 102.003 50.4693 102.003H46.8884C44.7814 102.003 43.0733 100.295 43.0733 98.188V88.501Z" fill="#042F6C"/>
<path fill-rule="evenodd" clip-rule="evenodd" d="M94.8198 93.0771V98.187C94.8198 100.294 93.1117 102.002 91.0047 102.002H87.0473C84.5506 102.002 82.5266 99.9781 82.5266 97.4814C82.5266 96.5307 83.1851 95.7067 84.1125 95.4971L94.8198 93.0771ZM91.8198 96.8309V98.187C91.8198 98.6372 91.4548 99.0021 91.0047 99.0021H87.0473C86.4719 99.0021 85.9711 98.6825 85.7128 98.2111L91.8198 96.8309Z" fill="#042F6C"/>
<path d="M94.8198 93.0781L84.1125 95.4981C83.1851 95.7077 82.5266 96.5316 82.5266 97.4824L-nan -nanL82.5266 97.4824C82.5266 99.9791 84.5506 102.003 87.0473 102.003H91.0047C93.1117 102.003 94.8198 100.295 94.8198 98.188V93.0781Z" fill="#042F6C"/>
<path d="M47.2791 58.8088C47.9839 56.1884 50.3596 54.3672 53.0732 54.3672H85.3192C88.0327 54.3672 90.4085 56.1884 91.1133 58.8088L95.0102 73.2976C95.2152 74.0599 95.3191 74.8458 95.3191 75.6352V88.3931C95.3191 93.3637 91.2897 97.3931 86.3191 97.3931H52.0733C47.1027 97.3931 43.0733 93.3637 43.0733 88.3931V75.6352C43.0733 74.8458 43.1772 74.0599 43.3822 73.2976L47.2791 58.8088Z" fill="#BEDFFF"/>
<path fill-rule="evenodd" clip-rule="evenodd" d="M85.3192 57.3672H53.0732C51.7164 57.3672 50.5285 58.2778 50.1761 59.588L46.2792 74.0768C46.1425 74.585 46.0733 75.1089 46.0733 75.6352V88.3931C46.0733 91.7068 48.7596 94.3931 52.0733 94.3931H86.3191C89.6328 94.3931 92.3191 91.7068 92.3191 88.3931V75.6352C92.3191 75.1089 92.2499 74.585 92.1132 74.0768L88.2163 59.588C87.8639 58.2778 86.676 57.3672 85.3192 57.3672ZM53.0732 54.3672C50.3596 54.3672 47.9839 56.1884 47.2791 58.8088L43.3822 73.2976C43.1772 74.0599 43.0733 74.8458 43.0733 75.6352V88.3931C43.0733 93.3637 47.1027 97.3931 52.0733 97.3931H86.3191C91.2897 97.3931 95.3191 93.3637 95.3191 88.3931V75.6352C95.3191 74.8458 95.2152 74.0599 95.0102 73.2976L91.1133 58.8088C90.4085 56.1884 88.0327 54.3672 85.3192 54.3672H53.0732Z" fill="#042F6C"/>
<path fill-rule="evenodd" clip-rule="evenodd" d="M58.7193 61.4624L54.5099 73.7201C54.086 74.9544 54.7359 73.2007 55.3668 74.3431V74.3431C55.497 74.5787 55.9224 74.2732 56.1176 74.4559C56.2409 74.5713 56.3731 74.7062 56.5101 74.846V74.846C56.9598 75.3047 57.6475 75.0884 57.8341 74.4736L61.039 63.9162C61.5382 62.2717 59.197 59.8116 58.7193 61.4624V61.4624ZM63.8514 60.7559C63.4492 60.6719 63.0729 60.9344 62.9499 61.3264L58.6501 75.03C58.5303 75.4118 58.7285 75.784 59.1245 75.7271V75.7271C59.5473 75.6662 59.996 75.3756 60.1258 74.9687L64.3534 61.7178C64.4867 61.3001 64.2806 60.8455 63.8514 60.7559V60.7559Z" fill="white"/>
<path d="M52.2776 62.8293C52.5954 61.4728 53.8053 60.5137 55.1985 60.5137H82.5437C83.8851 60.5137 85.0634 61.4041 85.4297 62.6945L88.0884 72.0609C88.6321 73.9762 87.1935 75.8801 85.2025 75.8801H53.004C51.0706 75.8801 49.6421 74.0781 50.0831 72.1957L52.2776 62.8293Z" fill="#FFFEFE" fill-opacity="0.5"/>
<path fill-rule="evenodd" clip-rule="evenodd" d="M82.5437 63.5137L55.1985 63.5137L53.004 72.8801L85.2025 72.8801L82.5437 63.5137ZM55.1985 60.5137C53.8053 60.5137 52.5954 61.4728 52.2776 62.8293L50.0831 72.1957C49.6421 74.0781 51.0706 75.8801 53.004 75.8801H85.2025C87.1935 75.8801 88.6321 73.9762 88.0884 72.0609L85.4297 62.6945C85.0634 61.4041 83.8851 60.5137 82.5437 60.5137H55.1985Z" fill="#042F6C"/>
<path fill-rule="evenodd" clip-rule="evenodd" d="M84.5626 88.2462C85.4518 88.2462 86.1725 87.5254 86.1725 86.6363C86.1725 85.7472 85.4518 85.0264 84.5626 85.0264C83.6735 85.0264 82.9527 85.7472 82.9527 86.6363C82.9527 87.5254 83.6735 88.2462 84.5626 88.2462ZM84.5626 91.2462C87.1086 91.2462 89.1725 89.1823 89.1725 86.6363C89.1725 84.0903 87.1086 82.0264 84.5626 82.0264C82.0166 82.0264 79.9527 84.0903 79.9527 86.6363C79.9527 89.1823 82.0166 91.2462 84.5626 91.2462Z" fill="#042F6C"/>
<path d="M58.4398 86.6363C58.4398 89.1823 56.3758 91.2462 53.8298 91.2462C51.2838 91.2462 49.2199 89.1823 49.2199 86.6363C49.2199 84.0903 51.2838 82.0264 53.8298 82.0264C56.3758 82.0264 58.4398 84.0903 58.4398 86.6363Z" fill="white"/>
<path fill-rule="evenodd" clip-rule="evenodd" d="M53.8298 89.2462C55.2713 89.2462 56.4398 88.0777 56.4398 86.6363C56.4398 85.1949 55.2713 84.0264 53.8298 84.0264C52.3884 84.0264 51.2199 85.1949 51.2199 86.6363C51.2199 88.0777 52.3884 89.2462 53.8298 89.2462ZM53.8298 91.2462C56.3758 91.2462 58.4398 89.1823 58.4398 86.6363C58.4398 84.0903 56.3758 82.0264 53.8298 82.0264C51.2838 82.0264 49.2199 84.0903 49.2199 86.6363C49.2199 89.1823 51.2838 91.2462 53.8298 91.2462Z" fill="#042F6C"/>
<path fill-rule="evenodd" clip-rule="evenodd" d="M72.2695 84.0264H66.1229C64.6815 84.0264 63.513 85.1949 63.513 86.6363C63.513 88.0777 64.6815 89.2462 66.1229 89.2462H72.2695C73.7109 89.2462 74.8794 88.0777 74.8794 86.6363C74.8794 85.1949 73.7109 84.0264 72.2695 84.0264ZM66.1229 82.0264C63.5769 82.0264 61.513 84.0903 61.513 86.6363C61.513 89.1823 63.5769 91.2462 66.1229 91.2462H72.2695C74.8155 91.2462 76.8794 89.1823 76.8794 86.6363C76.8794 84.0903 74.8155 82.0264 72.2695 82.0264H66.1229Z" fill="#042F6C"/>
<path d="M71.292 74.9332C71.3824 73.595 72.4412 72.5722 73.7663 72.3646C75.3368 72.1185 77.4325 71.737 79.0367 71.2513C80.9821 70.6622 83.6507 69.4819 85.2284 68.7533C86.0668 68.3661 87.0339 68.3661 87.8723 68.7533C89.4499 69.4819 92.1186 70.6622 94.064 71.2513C95.6681 71.737 97.7639 72.1185 99.3344 72.3646C100.659 72.5722 101.718 73.595 101.809 74.9332C102.212 80.9034 101.884 96.995 87.3847 101.747C86.8499 101.922 86.2508 101.922 85.716 101.747C71.2165 96.995 70.8888 80.9034 71.292 74.9332Z" fill="#C8D1EA"/>
<path fill-rule="evenodd" clip-rule="evenodd" d="M84.5323 97.0173C83.8625 96.714 83.241 96.3727 82.6642 95.9988L88.2445 73.1766C88.8209 73.4438 89.4886 73.7429 90.1556 74.0193L84.5323 97.0173ZM86.2358 72.7334L80.8837 94.622C79.5129 93.366 78.4764 91.8958 77.6965 90.3403L81.5563 74.5545C82.7388 74.1418 84.1627 73.5037 85.187 73.0221C85.5211 72.865 85.8761 72.7688 86.2358 72.7334Z" fill="white"/>
<path fill-rule="evenodd" clip-rule="evenodd" d="M84.7614 72.1199C85.8933 71.5876 87.2071 71.5876 88.339 72.1199C89.4956 72.6637 91.1086 73.381 92.2904 73.7516C93.1885 74.0332 94.3424 74.2723 95.3619 74.4514C97.066 74.7506 98.5425 76.105 98.63 77.9899C98.7444 80.4559 98.651 84.586 97.235 88.5817C95.8096 92.6041 93.0186 96.5431 87.7416 98.4317C86.9757 98.7058 86.1247 98.7058 85.3588 98.4317C80.0818 96.5431 77.2909 92.6041 75.8654 88.5817C74.4494 84.586 74.3561 80.4559 74.4705 77.9899C74.5579 76.105 76.0345 74.7506 77.7385 74.4514C78.758 74.2723 79.9119 74.0332 80.81 73.7516C81.9919 73.381 83.6049 72.6637 84.7614 72.1199ZM87.488 73.9298C86.8951 73.651 86.2053 73.651 85.6125 73.9298C84.4545 74.4743 82.7328 75.2446 81.4085 75.6599C80.3842 75.9812 79.128 76.238 78.0844 76.4212C77.1436 76.5864 76.5053 77.2851 76.4683 78.0826C76.3594 80.4309 76.4581 84.2666 77.7506 87.9137C79.0336 91.5341 81.4675 94.9148 86.0327 96.5487C86.3629 96.6668 86.7376 96.6668 87.0677 96.5487C91.633 94.9148 94.0669 91.5341 95.3499 87.9137C96.6423 84.2666 96.7411 80.4309 96.6321 78.0826C96.5951 77.2851 95.9568 76.5864 95.016 76.4212C93.9724 76.238 92.7163 75.9812 91.6919 75.6599C90.3676 75.2446 88.6459 74.4743 87.488 73.9298Z" fill="#2571BC"/>
<defs>
<radialGradient id="paint0_radial_366_2781" cx="0" cy="0" r="1" gradientUnits="userSpaceOnUse" gradientTransform="translate(70.5 70.5) rotate(90) scale(70.5)">
<stop offset="0.458333" stop-color="#A0D0FF"/>
<stop offset="1" stop-color="white"/>
</radialGradient>
<radialGradient id="paint1_radial_366_2781" cx="0" cy="0" r="1" gradientUnits="userSpaceOnUse" gradientTransform="translate(70 70) rotate(90) scale(24)">
<stop offset="0.458333" stop-color="#A0D0FF"/>
<stop offset="1" stop-color="white"/>
</radialGradient>
<linearGradient id="paint2_linear_366_2781" x1="69.1962" y1="39" x2="70.5" y2="68.5" gradientUnits="userSpaceOnUse">
<stop stop-color="#9FC8F2"/>
<stop offset="1" stop-color="white"/>
</linearGradient>
</defs>
</svg>
