<svg width="303" height="68" viewBox="0 0 303 68" fill="none" xmlns="http://www.w3.org/2000/svg">
<path d="M6.16741 37.6549V50.8483H0V19.0908H15.785C23.932 19.0908 27.8115 22.3269 27.8115 27.9993C27.8115 33.6352 23.932 37.6549 15.785 37.6549H6.16741ZM6.16741 24.2281V32.5177H15.751C19.4511 32.5177 21.4114 31.2354 21.4114 27.9993C21.4114 24.7268 19.4511 24.2281 15.751 24.2281H6.16741Z" fill="#373435"/>
<path d="M57.7987 26.5361C53.5089 32.3525 50.6104 35.726 47.7119 42.822L59.3059 28.8627L57.7987 26.5361Z" fill="#373435"/>
<path d="M55.6796 19.0908L71.8277 50.732H65.2192C65.2192 50.732 58.201 36.6486 57.4512 35.144C55.0768 35.144 52.4936 34.7811 52.4936 34.7811C52.4936 34.7811 49.9706 35.144 47.5963 35.144C46.8465 36.6486 40.0602 50.8483 40.0602 50.8483H33.2197L49.3076 19.0908H55.6796ZM47.5963 35.144C49.9706 35.144 52.4936 34.7811 52.4936 34.7811C52.4936 34.7811 55.0768 35.144 57.4512 35.144C55.104 30.3141 52.3498 25.4888 52.3498 25.4888C52.3498 25.4888 49.9435 30.3141 47.5963 35.144Z" fill="#373435"/>
<path d="M109.701 19.0908H118.521V50.8483H112.443V28.526V26.2247L100.799 50.8483H94.9992L83.0854 26.2247V28.2098V50.8483H77.2367V19.0908H86.0978L97.7784 43.3172H97.9797L109.701 19.0908Z" fill="#373435"/>
<path d="M201.287 27.2244C201.801 27.2244 202.218 27.1678 202.539 27.0547C203.147 26.8377 203.451 26.4345 203.451 25.845C203.451 25.5008 203.301 25.2343 202.999 25.0457C202.697 24.8617 202.223 24.699 201.577 24.5576L200.473 24.31C199.389 24.0647 198.639 23.7983 198.224 23.5106C197.521 23.0296 197.17 22.2774 197.17 21.254C197.17 20.3203 197.509 19.5445 198.188 18.9267C198.868 18.3089 199.865 18 201.181 18C202.28 18 203.216 18.2924 203.989 18.8772C204.767 19.4572 205.175 20.3014 205.213 21.4096H203.119C203.081 20.7824 202.808 20.3368 202.298 20.0727C201.959 19.8982 201.537 19.8109 201.032 19.8109C200.471 19.8109 200.023 19.9241 199.688 20.1505C199.353 20.3768 199.186 20.6928 199.186 21.0984C199.186 21.471 199.351 21.7492 199.681 21.9331C199.893 22.0557 200.346 22.1996 201.039 22.3646L202.836 22.7961C203.624 22.9848 204.218 23.2371 204.619 23.5531C205.241 24.0435 205.552 24.7533 205.552 25.6823C205.552 26.6349 205.187 27.4272 204.456 28.0592C203.73 28.6864 202.702 29 201.372 29C200.014 29 198.945 28.6911 198.167 28.0733C197.389 27.4508 197 26.5972 197 25.5125H199.08C199.146 25.9889 199.275 26.3449 199.469 26.5807C199.823 27.0099 200.429 27.2244 201.287 27.2244Z" fill="black"/>
<path d="M210.029 28.7312H207.999V18.3042H211.168L213.064 26.5029L214.946 18.3042H218.08V28.7312H216.049V21.6785C216.049 21.4757 216.052 21.1927 216.056 20.8296C216.061 20.4617 216.063 20.1788 216.063 19.9807L214.09 28.7312H211.975L210.015 19.9807C210.015 20.1788 210.018 20.4617 210.022 20.8296C210.027 21.1927 210.029 21.4757 210.029 21.6785V28.7312Z" fill="black"/>
<path d="M227.077 26.5878H223.236L222.514 28.7312H220.236L223.957 18.3042H226.419L230.111 28.7312H227.749L227.077 26.5878ZM226.468 24.791L225.167 20.6881L223.823 24.791H226.468Z" fill="black"/>
<path d="M236.739 24.6424H234.489V28.7312H232.36V18.3042H237.475C238.206 18.3183 238.767 18.4079 239.158 18.573C239.554 18.738 239.889 18.9809 240.163 19.3016C240.389 19.5657 240.568 19.8581 240.7 20.1788C240.832 20.4995 240.898 20.865 240.898 21.2752C240.898 21.7704 240.773 22.2585 240.523 22.7395C240.274 23.2159 239.861 23.5531 239.286 23.7511C239.767 23.9445 240.106 24.2204 240.304 24.5788C240.507 24.9325 240.608 25.4748 240.608 26.2058V26.9061C240.608 27.3824 240.627 27.7055 240.665 27.8752C240.722 28.1441 240.854 28.3421 241.061 28.4695V28.7312H238.663C238.597 28.5001 238.55 28.3138 238.522 28.1723C238.465 27.88 238.434 27.5805 238.43 27.274L238.415 26.3048C238.406 25.6399 238.283 25.1966 238.048 24.9749C237.817 24.7533 237.38 24.6424 236.739 24.6424ZM238.062 22.7466C238.496 22.5486 238.713 22.1571 238.713 21.5723C238.713 20.9404 238.503 20.516 238.083 20.299C237.847 20.1764 237.493 20.1151 237.022 20.1151H234.489V22.9164H236.958C237.449 22.9164 237.817 22.8598 238.062 22.7466Z" fill="black"/>
<path d="M251.226 18.3042V20.1505H248.106V28.7312H245.913V20.1505H242.779V18.3042H251.226Z" fill="black"/>
<path d="M251.812 23.737H255.872V25.6469H251.812V23.737Z" fill="black"/>
<path d="M264.495 28.7312V24.0765H260.42V28.7312H258.262V18.3042H260.42V22.2797H264.495V18.3042H266.659V28.7312H264.495Z" fill="black"/>
<path d="M275.784 24.7132V18.3042H277.998V24.7132C277.998 25.8214 277.826 26.6845 277.482 27.3023C276.84 28.4341 275.616 29 273.81 29C272.004 29 270.778 28.4341 270.132 27.3023C269.787 26.6845 269.615 25.8214 269.615 24.7132V18.3042H271.829V24.7132C271.829 25.43 271.914 25.9535 272.084 26.2836C272.348 26.8684 272.924 27.1608 273.81 27.1608C274.692 27.1608 275.265 26.8684 275.529 26.2836C275.699 25.9535 275.784 25.43 275.784 24.7132Z" fill="black"/>
<path d="M285.715 28.7312H280.989V18.3042H286.054C287.332 18.323 288.238 18.6932 288.771 19.4148C289.091 19.8581 289.252 20.3886 289.252 21.0064C289.252 21.6431 289.091 22.1548 288.771 22.5415C288.591 22.7584 288.327 22.9565 287.978 23.1357C288.511 23.329 288.912 23.6356 289.181 24.0553C289.455 24.475 289.591 24.9844 289.591 25.5833C289.591 26.2011 289.436 26.7552 289.124 27.2457C288.926 27.5711 288.679 27.8446 288.382 28.0662C288.047 28.3209 287.651 28.4954 287.193 28.5897C286.74 28.684 286.248 28.7312 285.715 28.7312ZM285.665 24.1402H283.069V26.9203H285.63C286.087 26.9203 286.443 26.8589 286.698 26.7363C287.16 26.51 287.391 26.0761 287.391 25.4347C287.391 24.8924 287.167 24.5198 286.719 24.317C286.469 24.2039 286.118 24.1449 285.665 24.1402ZM286.748 22.1524C287.031 21.9826 287.172 21.6785 287.172 21.2399C287.172 20.7541 286.983 20.4334 286.606 20.2778C286.281 20.1693 285.866 20.1151 285.361 20.1151H283.069V22.4141H285.63C286.087 22.4141 286.46 22.3269 286.748 22.1524Z" fill="black"/>
<path d="M197.958 46.9129C197.997 47.3351 198.099 47.6957 198.263 47.9947C198.437 48.285 198.655 48.5224 198.917 48.7071C199.188 48.8918 199.497 49.0281 199.846 49.1161C200.194 49.1953 200.567 49.2348 200.964 49.2348C201.429 49.2348 201.83 49.1821 202.169 49.0765C202.508 48.971 202.784 48.8303 202.997 48.6544C203.21 48.4697 203.365 48.2586 203.461 48.0211C203.568 47.7836 203.621 47.533 203.621 47.2691C203.621 46.8997 203.529 46.6007 203.345 46.372C203.161 46.1434 202.919 45.9587 202.619 45.8179C202.329 45.6684 201.99 45.5497 201.603 45.4617C201.225 45.3738 200.833 45.2902 200.427 45.2111C200.03 45.1231 199.638 45.022 199.251 44.9077C198.873 44.7933 198.534 44.6394 198.234 44.4459C197.944 44.2524 197.707 44.0062 197.523 43.7071C197.339 43.3993 197.247 43.0123 197.247 42.5462C197.247 42.2208 197.319 41.9041 197.465 41.5963C197.62 41.2885 197.842 41.0158 198.133 40.7784C198.433 40.5409 198.805 40.3518 199.251 40.2111C199.696 40.0704 200.209 40 200.79 40C201.38 40 201.893 40.0748 202.329 40.2243C202.774 40.3738 203.142 40.5805 203.432 40.8443C203.723 41.0994 203.941 41.3984 204.086 41.7414C204.231 42.0844 204.304 42.4494 204.304 42.8364H203.36C203.36 42.4758 203.287 42.1636 203.142 41.8997C203.006 41.6359 202.818 41.4204 202.576 41.2533C202.334 41.0862 202.058 40.9631 201.748 40.8839C201.438 40.8047 201.119 40.7652 200.79 40.7652C200.286 40.7652 199.86 40.8311 199.512 40.9631C199.173 41.0862 198.902 41.2489 198.699 41.4512C198.496 41.6535 198.355 41.8777 198.278 42.124C198.2 42.3703 198.186 42.6165 198.234 42.8628C198.292 43.1706 198.428 43.4169 198.641 43.6016C198.854 43.7863 199.115 43.9402 199.425 44.0633C199.735 44.1777 200.073 44.2744 200.441 44.3536C200.819 44.4239 201.201 44.5031 201.588 44.591C201.976 44.6702 202.348 44.7669 202.706 44.8813C203.074 44.9956 203.398 45.1495 203.679 45.343C203.96 45.5365 204.183 45.7872 204.347 46.095C204.521 46.394 204.608 46.7722 204.608 47.2296C204.608 48.1091 204.275 48.7907 203.607 49.2744C202.939 49.7581 202 50 200.79 50C200.248 50 199.744 49.934 199.28 49.8021C198.815 49.679 198.413 49.4899 198.074 49.2348C197.736 48.971 197.469 48.65 197.276 48.2718C197.092 47.8848 197 47.4318 197 46.9129H197.958Z" fill="black"/>
<path d="M207.619 45.0132C207.619 44.3184 207.72 43.6675 207.924 43.0607C208.137 42.4538 208.446 41.9261 208.853 41.4776C209.26 41.0202 209.763 40.6596 210.363 40.3958C210.963 40.1319 211.655 40 212.439 40C213.253 40 213.964 40.1319 214.574 40.3958C215.193 40.6508 215.706 41.007 216.113 41.4644C216.529 41.9129 216.839 42.445 217.042 43.0607C217.255 43.6675 217.362 44.3184 217.362 45.0132C217.362 45.6992 217.255 46.3456 217.042 46.9525C216.839 47.5506 216.534 48.0783 216.128 48.5356C215.721 48.9842 215.213 49.3404 214.603 49.6042C213.993 49.8681 213.286 50 212.483 50C211.68 50 210.973 49.8681 210.363 49.6042C209.753 49.3404 209.245 48.9842 208.839 48.5356C208.432 48.0783 208.127 47.5506 207.924 46.9525C207.72 46.3456 207.619 45.6992 207.619 45.0132ZM212.498 49.2348C213.175 49.2348 213.756 49.1205 214.24 48.8918C214.734 48.6544 215.135 48.3421 215.445 47.9551C215.765 47.5682 215.997 47.1196 216.142 46.6095C216.297 46.0994 216.374 45.5673 216.374 45.0132C216.374 44.3536 216.282 43.7643 216.099 43.2454C215.924 42.7177 215.668 42.2691 215.329 41.8997C214.99 41.5303 214.579 41.2489 214.095 41.0554C213.611 40.8619 213.069 40.7652 212.469 40.7652C211.801 40.7652 211.22 40.8839 210.726 41.1214C210.242 41.3588 209.84 41.6755 209.521 42.0712C209.211 42.4582 208.979 42.9068 208.824 43.4169C208.679 43.927 208.606 44.4591 208.606 45.0132C208.606 45.5761 208.679 46.1126 208.824 46.6227C208.979 47.1328 209.211 47.5814 209.521 47.9683C209.84 48.3553 210.242 48.6631 210.726 48.8918C211.22 49.1205 211.81 49.2348 212.498 49.2348Z" fill="black"/>
<path d="M220.924 49.7493V40.2507H221.911V48.9842H227.516V49.7493H220.924Z" fill="black"/>
<path d="M230.604 40.2507H231.591V45.9103C231.591 47.0888 231.833 47.9376 232.317 48.4565C232.801 48.9754 233.58 49.2348 234.655 49.2348C235.216 49.2348 235.691 49.1689 236.078 49.0369C236.475 48.8962 236.794 48.6895 237.036 48.4169C237.278 48.1354 237.452 47.788 237.559 47.3747C237.665 46.9613 237.719 46.4732 237.719 45.9103V40.2507H238.706V46.1741C238.706 47.4142 238.367 48.3641 237.689 49.0237C237.022 49.6746 236.01 50 234.655 50C233.29 50 232.274 49.6658 231.606 48.9974C230.938 48.3289 230.604 47.3879 230.604 46.1741V40.2507Z" fill="black"/>
<path d="M241.721 40.2507H249.33V41.0158H246.019V49.7493H245.032V41.0158H241.721V40.2507Z" fill="black"/>
<path d="M252.679 49.7493V40.2507H253.666V49.7493H252.679Z" fill="black"/>
<path d="M257.562 45.0132C257.562 44.3184 257.664 43.6675 257.867 43.0607C258.08 42.4538 258.39 41.9261 258.797 41.4776C259.203 41.0202 259.707 40.6596 260.307 40.3958C260.907 40.1319 261.599 40 262.383 40C263.196 40 263.908 40.1319 264.517 40.3958C265.137 40.6508 265.65 41.007 266.057 41.4644C266.473 41.9129 266.783 42.445 266.986 43.0607C267.199 43.6675 267.305 44.3184 267.305 45.0132C267.305 45.6992 267.199 46.3456 266.986 46.9525C266.783 47.5506 266.478 48.0783 266.071 48.5356C265.665 48.9842 265.156 49.3404 264.547 49.6042C263.937 49.8681 263.23 50 262.427 50C261.623 50 260.917 49.8681 260.307 49.6042C259.697 49.3404 259.189 48.9842 258.782 48.5356C258.376 48.0783 258.071 47.5506 257.867 46.9525C257.664 46.3456 257.562 45.6992 257.562 45.0132ZM262.441 49.2348C263.119 49.2348 263.7 49.1205 264.184 48.8918C264.677 48.6544 265.079 48.3421 265.389 47.9551C265.708 47.5682 265.94 47.1196 266.086 46.6095C266.241 46.0994 266.318 45.5673 266.318 45.0132C266.318 44.3536 266.226 43.7643 266.042 43.2454C265.868 42.7177 265.611 42.2691 265.273 41.8997C264.934 41.5303 264.522 41.2489 264.038 41.0554C263.554 40.8619 263.012 40.7652 262.412 40.7652C261.744 40.7652 261.163 40.8839 260.67 41.1214C260.186 41.3588 259.784 41.6755 259.465 42.0712C259.155 42.4582 258.922 42.9068 258.768 43.4169C258.622 43.927 258.55 44.4591 258.55 45.0132C258.55 45.5761 258.622 46.1126 258.768 46.6227C258.922 47.1328 259.155 47.5814 259.465 47.9683C259.784 48.3553 260.186 48.6631 260.67 48.8918C261.163 49.1205 261.754 49.2348 262.441 49.2348Z" fill="black"/>
<path d="M271.855 41.4644H271.826V49.7493H270.838V40.2507H271.956L277.997 48.5488H278.026V40.2507H279.013V49.7493H277.866L271.855 41.4644Z" fill="black"/>
<path d="M283.35 46.9129C283.389 47.3351 283.49 47.6957 283.655 47.9947C283.829 48.285 284.047 48.5224 284.308 48.7071C284.579 48.8918 284.889 49.0281 285.237 49.1161C285.586 49.1953 285.959 49.2348 286.355 49.2348C286.82 49.2348 287.222 49.1821 287.561 49.0765C287.899 48.971 288.175 48.8303 288.388 48.6544C288.601 48.4697 288.756 48.2586 288.853 48.0211C288.959 47.7836 289.013 47.533 289.013 47.2691C289.013 46.8997 288.921 46.6007 288.737 46.372C288.553 46.1434 288.311 45.9587 288.011 45.8179C287.72 45.6684 287.382 45.5497 286.994 45.4617C286.617 45.3738 286.225 45.2902 285.818 45.2111C285.421 45.1231 285.029 45.022 284.642 44.9077C284.265 44.7933 283.926 44.6394 283.626 44.4459C283.335 44.2524 283.098 44.0062 282.914 43.7071C282.73 43.3993 282.638 43.0123 282.638 42.5462C282.638 42.2208 282.711 41.9041 282.856 41.5963C283.011 41.2885 283.234 41.0158 283.524 40.7784C283.824 40.5409 284.197 40.3518 284.642 40.2111C285.087 40.0704 285.6 40 286.181 40C286.772 40 287.285 40.0748 287.72 40.2243C288.166 40.3738 288.533 40.5805 288.824 40.8443C289.114 41.0994 289.332 41.3984 289.477 41.7414C289.622 42.0844 289.695 42.4494 289.695 42.8364H288.751C288.751 42.4758 288.679 42.1636 288.533 41.8997C288.398 41.6359 288.209 41.4204 287.967 41.2533C287.725 41.0862 287.449 40.9631 287.14 40.8839C286.83 40.8047 286.51 40.7652 286.181 40.7652C285.678 40.7652 285.252 40.8311 284.903 40.9631C284.565 41.0862 284.294 41.2489 284.09 41.4512C283.887 41.6535 283.747 41.8777 283.669 42.124C283.592 42.3703 283.577 42.6165 283.626 42.8628C283.684 43.1706 283.819 43.4169 284.032 43.6016C284.245 43.7863 284.507 43.9402 284.816 44.0633C285.126 44.1777 285.465 44.2744 285.833 44.3536C286.21 44.4239 286.593 44.5031 286.98 44.591C287.367 44.6702 287.74 44.7669 288.098 44.8813C288.466 44.9956 288.79 45.1495 289.071 45.343C289.351 45.5365 289.574 45.7872 289.739 46.095C289.913 46.394 290 46.7722 290 47.2296C290 48.1091 289.666 48.7907 288.998 49.2744C288.33 49.7581 287.391 50 286.181 50C285.639 50 285.136 49.934 284.671 49.8021C284.207 49.679 283.805 49.4899 283.466 49.2348C283.127 48.971 282.861 48.65 282.667 48.2718C282.483 47.8848 282.392 47.4318 282.392 46.9129H283.35Z" fill="black"/>
<path d="M131.082 15.9484L156.418 1.53732C157.665 0.827711 159.192 0.82052 160.446 1.51835L186.393 15.9555C187.699 16.6819 188.509 18.0602 188.509 19.5561V48.8129C188.509 50.3236 187.683 51.7131 186.357 52.4335L160.409 66.5311C159.174 67.2022 157.683 67.1952 156.454 66.5127L131.118 52.4409C129.811 51.7149 129 50.3357 129 48.8387V19.5301C129 18.0481 129.795 16.6803 131.082 15.9484Z" fill="#D0E2F4" stroke="#1A75CF"/>
<path d="M138.244 20.0184L157.023 9.13339C157.947 8.59741 159.079 8.59197 160.008 9.11906L179.24 20.0237C180.207 20.5724 180.807 21.6135 180.807 22.7433V44.8415C180.807 45.9826 180.195 47.0321 179.213 47.5762L159.981 58.2244C159.066 58.7313 157.96 58.7261 157.049 58.2105L138.271 47.5818C137.302 47.0335 136.701 45.9918 136.701 44.861V22.7237C136.701 21.6043 137.29 20.5712 138.244 20.0184Z" fill="#373435"/>
<path d="M151.025 41.9646C152.227 41.9646 153.203 41.836 153.953 41.5788C155.376 41.0857 156.087 40.1693 156.087 38.8296C156.087 38.0472 155.734 37.4416 155.028 37.0129C154.322 36.5949 153.214 36.2251 151.703 35.9035L149.122 35.3408C146.586 34.7835 144.832 34.1779 143.862 33.5241C142.219 32.4309 141.397 30.7213 141.397 28.3955C141.397 26.2733 142.191 24.5102 143.779 23.1061C145.367 21.702 147.7 21 150.777 21C153.346 21 155.535 21.6645 157.344 22.9936C159.164 24.3119 160.118 26.2304 160.206 28.7492H155.309C155.221 27.3237 154.581 26.3108 153.39 25.7106C152.596 25.314 151.609 25.1158 150.429 25.1158C149.117 25.1158 148.069 25.373 147.286 25.8875C146.503 26.4019 146.112 27.12 146.112 28.0418C146.112 28.8885 146.498 29.5209 147.27 29.9389C147.766 30.2176 148.825 30.5445 150.446 30.9196L154.648 31.9003C156.489 32.329 157.879 32.9025 158.816 33.6206C160.272 34.7353 161 36.3483 161 38.4598C161 40.6249 160.145 42.4255 158.436 43.8617C156.738 45.2872 154.333 46 151.223 46C148.047 46 145.549 45.298 143.73 43.8939C141.91 42.4791 141 40.5391 141 38.074H145.864C146.018 39.1565 146.321 39.9657 146.773 40.5016C147.6 41.477 149.018 41.9646 151.025 41.9646Z" fill="white"/>
<path d="M172.906 42V34.8575H167.083V42H164V26H167.083V32.1004H172.906V26H176V42H172.906Z" fill="white"/>
<rect x="189" y="35" width="1" height="107" transform="rotate(-90 189 35)" fill="#1A75CF"/>
<circle cx="299.5" cy="34.5" r="3" fill="#D0E2F4" stroke="#1A75CF"/>
</svg>
