<svg width="395" height="68" viewBox="0 0 395 68" fill="none" xmlns="http://www.w3.org/2000/svg">
<path d="M238.702 20.229C241.988 20.6268 244.002 21.4002 244.002 24.9139C244.002 28.0076 242.186 29.8639 238.596 29.8639C236.608 29.8639 234.21 29.1567 232.845 28.2507V25.3116C233.971 26.1735 236.277 27.2563 238.357 27.2563C240.596 27.2563 241.789 26.5712 241.789 25.2232C241.789 23.7647 240.636 23.3891 238.238 23.1018C235.283 22.7482 232.924 22.2179 232.924 18.5496C232.924 15.058 235.376 13.9531 238.384 13.9531C240.769 13.9531 242.836 14.9254 243.233 15.1906V17.9971C242.677 17.5993 240.716 16.5386 238.397 16.5386C236.608 16.5386 235.177 17.0248 235.177 18.3507C235.177 19.7871 236.595 19.9638 238.702 20.229Z" fill="#373435"/>
<path d="M259.093 27.0795V29.6429H248.48V14.1741H258.842V16.7375H250.653V20.7152H257.861V23.0134H250.653V27.0795H259.093Z" fill="#373435"/>
<path d="M274.336 26.6154C274.468 28.317 274.455 29.002 274.773 29.6429H272.507C272.242 28.9799 272.202 28.0518 272.083 26.5933C271.937 24.5603 271.341 24.0299 269.592 24.0299H265.842V29.6429H263.669V14.1741H269.804C272.984 14.1741 274.375 15.7873 274.375 18.7042C274.375 20.5605 273.753 21.9085 272.507 22.6598V22.7703C273.832 23.1681 274.15 24.3172 274.336 26.6154ZM269.804 21.7096C271.248 21.7096 272.215 20.892 272.215 19.1683C272.215 17.4446 271.248 16.7154 269.804 16.7154H265.842V21.7096H269.804Z" fill="#373435"/>
<path d="M285.155 29.6429H282.12L277.575 14.1741H279.947L283.604 26.6817H283.671L287.328 14.1741H289.7L285.155 29.6429Z" fill="#373435"/>
<path d="M293.801 29.6429V14.1741H295.974V29.6429H293.801Z" fill="#373435"/>
<path d="M311.614 28.3612C310.607 29.2451 308.832 29.8639 307.228 29.8639C302.855 29.8639 300.643 26.748 300.643 21.9085C300.643 17.069 302.869 13.9531 307.228 13.9531C308.792 13.9531 310.422 14.5277 311.429 15.3453V18.4833C310.713 17.3121 308.964 16.4944 307.401 16.4944C304.737 16.4944 302.816 18.2623 302.816 21.9085C302.816 25.5326 304.724 27.3226 307.401 27.3226C309.044 27.3226 310.872 26.4607 311.614 25.179V28.3612Z" fill="#373435"/>
<path d="M326.667 27.0795V29.6429H316.053V14.1741H326.415V16.7375H318.226V20.7152H325.435V23.0134H318.226V27.0795H326.667Z" fill="#373435"/>
<path d="M233.72 52.7132V37.2444H235.893V52.7132H233.72Z" fill="#373435"/>
<path d="M250.022 37.2444H252.116V52.7132H249.85L243.331 41.863H243.264V52.7132H241.171V37.2444H243.41L249.956 48.0947H250.022V37.2444Z" fill="#373435"/>
<path d="M256.269 39.8078V37.2444H266.75V39.8078H262.589V52.7132H260.416V39.8078H256.269Z" fill="#373435"/>
<path d="M281.516 50.1498V52.7132H270.902V37.2444H281.264V39.8078H273.075V43.7855H280.284V46.0837H273.075V50.1498H281.516Z" fill="#373435"/>
<path d="M286.091 37.2444H288.264V50.1498H296.188V52.7132H286.091V37.2444Z" fill="#373435"/>
<path d="M300.349 37.2444H302.522V50.1498H310.446V52.7132H300.349V37.2444Z" fill="#373435"/>
<path d="M314.606 52.7132V37.2444H316.779V52.7132H314.606Z" fill="#373435"/>
<path d="M332.87 44.0286V51.0337C331.863 52.006 329.69 52.9342 328.046 52.9342C323.674 52.9342 321.448 49.8183 321.448 44.9788C321.448 40.1393 323.687 37.0234 328.046 37.0234C329.424 37.0234 331.107 37.5317 332.247 38.2388V40.9569C331.227 40.073 329.703 39.5647 328.219 39.5647C325.489 39.5647 323.634 41.3547 323.634 44.9788C323.634 48.6029 325.449 50.4371 328.192 50.4371C329.106 50.4371 330.021 50.0614 330.71 49.4647V46.2384H327V44.0286H332.87Z" fill="#373435"/>
<path d="M348.093 50.1498V52.7132H337.479V37.2444H347.841V39.8078H339.652V43.7855H346.861V46.0837H339.652V50.1498H348.093Z" fill="#373435"/>
<path d="M361.52 37.2444H363.613V52.7132H361.348L354.828 41.863H354.762V52.7132H352.668V37.2444H354.908L361.454 48.0947H361.52V37.2444Z" fill="#373435"/>
<path d="M379.255 51.4315C378.248 52.3154 376.472 52.9342 374.869 52.9342C370.496 52.9342 368.283 49.8183 368.283 44.9788C368.283 40.1393 370.509 37.0234 374.869 37.0234C376.432 37.0234 378.062 37.598 379.069 38.4156V41.5536C378.354 40.3824 376.605 39.5647 375.041 39.5647C372.378 39.5647 370.456 41.3326 370.456 44.9788C370.456 48.6029 372.364 50.3929 375.041 50.3929C376.684 50.3929 378.513 49.531 379.255 48.2493V51.4315Z" fill="#373435"/>
<path d="M394.308 50.1498V52.7132H383.694V37.2444H394.056V39.8078H385.867V43.7855H393.075V46.0837H385.867V50.1498H394.308Z" fill="#373435"/>
<path d="M8.14479 39.2964V56.7197H0V14.7803H20.8459C31.6051 14.7803 36.7284 19.054 36.7284 26.5449C36.7284 33.9878 31.6051 39.2964 20.8459 39.2964H8.14479ZM8.14479 21.5646V32.512H20.8011C25.6875 32.512 28.2763 30.8186 28.2763 26.5449C28.2763 22.2232 25.6875 21.5646 20.8011 21.5646H8.14479Z" fill="#373435"/>
<path d="M76.3301 24.6123C70.6649 32.2935 66.8371 36.7486 63.0093 46.1197L78.3205 27.6848L76.3301 24.6123Z" fill="#373435"/>
<path d="M73.5315 14.7803L94.857 56.5661H86.1296C86.1296 56.5661 76.8613 37.9674 75.8711 35.9804C72.7355 35.9804 69.324 35.5011 69.324 35.5011C69.324 35.5011 65.9921 35.9804 62.8565 35.9804C61.8663 37.9674 52.9042 56.7197 52.9042 56.7197H43.8706L65.1165 14.7803H73.5315ZM62.8565 35.9804C65.9921 35.9804 69.324 35.5011 69.324 35.5011C69.324 35.5011 72.7355 35.9804 75.8711 35.9804C72.7714 29.6019 69.1341 23.2296 69.1341 23.2296C69.1341 23.2296 65.9563 29.6019 62.8565 35.9804Z" fill="#373435"/>
<path d="M144.872 14.7803H156.521V56.7197H148.495V27.2405V24.2015L133.117 56.7197H125.457L109.724 24.2015V26.8229V56.7197H102V14.7803H113.702L129.128 46.7741H129.394L144.872 14.7803Z" fill="#373435"/>
<path d="M167.407 15.6633L192.743 1.25217C193.991 0.542555 195.517 0.535363 196.772 1.23319L222.719 15.6703C224.024 16.3968 224.834 17.7751 224.834 19.271V48.5277C224.834 50.0385 224.008 51.428 222.682 52.1483L196.735 66.246C195.5 66.917 194.008 66.9101 192.779 66.2276L167.444 52.1558C166.137 51.4297 165.326 50.0506 165.326 48.5536V19.245C165.326 17.7629 166.121 16.3952 167.407 15.6633Z" fill="#D0E2F4" stroke="#1A75CF"/>
<path d="M174.57 19.7332L193.348 8.84823C194.273 8.31225 195.404 8.30682 196.334 8.8339L215.565 19.7385C216.533 20.2872 217.133 21.3283 217.133 22.4582V44.5564C217.133 45.6974 216.521 46.747 215.538 47.2911L196.307 57.9393C195.391 58.4461 194.286 58.4409 193.375 57.9254L174.597 47.2967C173.628 46.7483 173.027 45.7066 173.027 44.5759V22.4385C173.027 21.3191 173.616 20.286 174.57 19.7332Z" fill="#373435"/>
<path d="M190.979 30.8619C196.511 31.5172 199.902 32.7913 199.902 38.5794C199.902 43.6759 196.846 46.7337 190.8 46.7337C187.455 46.7337 183.417 45.5688 181.12 44.0763V39.2347C183.016 40.6544 186.897 42.4382 190.399 42.4382C194.169 42.4382 196.176 41.3097 196.176 39.0891C196.176 36.6865 194.236 36.0676 190.198 35.5944C185.224 35.0119 181.253 34.1382 181.253 28.0953C181.253 22.3436 185.38 20.5234 190.444 20.5234C194.459 20.5234 197.939 22.1252 198.608 22.562V27.1852C197.671 26.53 194.37 24.7826 190.466 24.7826C187.455 24.7826 185.045 25.5835 185.045 27.7677C185.045 30.1339 187.432 30.4251 190.979 30.8619Z" fill="white"/>
<path d="M208.025 46.7337H203.931V28.9934H208.025V46.7337ZM208.558 23.3579C208.558 24.9252 207.618 26.159 205.991 26.159C204.363 26.159 203.423 24.9252 203.423 23.3579C203.423 21.7573 204.363 20.5234 205.991 20.5234C207.618 20.5234 208.558 21.7573 208.558 23.3579Z" fill="white"/>
</svg>
