<svg width="205" height="28" viewBox="0 0 205 28" fill="none" xmlns="http://www.w3.org/2000/svg">
<path d="M49.6068 17.3822C49.6068 17.9911 49.5293 18.5407 49.3745 19.0309C49.2274 19.5133 49.03 19.9403 48.7822 20.312C48.5345 20.6836 48.2441 20.9999 47.9112 21.2609C47.5783 21.5218 47.2338 21.7353 46.8776 21.9014C46.5215 22.0674 46.1576 22.19 45.786 22.2691C45.4221 22.3481 45.0776 22.3877 44.7524 22.3877H33.1042V19.3038H44.7524C45.3331 19.3038 45.7821 19.1298 46.0995 18.7819C46.4247 18.4339 46.5873 17.9674 46.5873 17.3822C46.5873 17.0976 46.5447 16.8366 46.4596 16.5994C46.3744 16.3622 46.2505 16.1566 46.0879 15.9826C45.9331 15.8087 45.7395 15.6742 45.5073 15.5793C45.2827 15.4844 45.0311 15.437 44.7524 15.437H37.8076C37.3198 15.437 36.7934 15.35 36.2282 15.1761C35.663 14.9942 35.1365 14.7056 34.6488 14.3102C34.1688 13.9148 33.7662 13.3969 33.441 12.7564C33.1236 12.1159 32.9648 11.333 32.9648 10.4078C32.9648 9.48266 33.1236 8.70377 33.441 8.07118C33.7662 7.43067 34.1688 6.91273 34.6488 6.51736C35.1365 6.11407 35.663 5.82545 36.2282 5.65149C36.7934 5.46961 37.3198 5.37868 37.8076 5.37868H48.0854V8.4626H37.8076C37.2347 8.4626 36.7856 8.64052 36.4605 8.99635C36.143 9.35219 35.9843 9.82268 35.9843 10.4078C35.9843 11.0009 36.143 11.4714 36.4605 11.8193C36.7856 12.1593 37.2347 12.3294 37.8076 12.3294H44.7756C45.1008 12.3373 45.4453 12.3847 45.8092 12.4717C46.1731 12.5508 46.5331 12.6773 46.8892 12.8513C47.2531 13.0252 47.5977 13.2466 47.9228 13.5155C48.248 13.7764 48.5345 14.0927 48.7822 14.4644C49.0377 14.836 49.239 15.263 49.3861 15.7454C49.5332 16.2277 49.6068 16.7734 49.6068 17.3822Z" fill="url(#paint0_linear_205_3093)"/>
<path d="M73.8763 22.3877H70.8336V12.2582L65.4799 21.8776C65.3483 22.1228 65.1625 22.3086 64.9225 22.4351C64.6902 22.5616 64.4386 22.6249 64.1676 22.6249C63.9043 22.6249 63.6566 22.5616 63.4243 22.4351C63.1998 22.3086 63.0217 22.1228 62.8901 21.8776L57.5131 12.2582V22.3877H54.4937V6.69527C54.4937 6.33944 54.5943 6.02314 54.7956 5.74638C55.0047 5.46961 55.2756 5.28379 55.6085 5.1889C55.7711 5.14936 55.9337 5.1375 56.0963 5.15331C56.2589 5.16122 56.4137 5.19681 56.5608 5.26007C56.7157 5.31542 56.855 5.39845 56.9789 5.50915C57.1028 5.61195 57.2073 5.73847 57.2925 5.88871L64.1676 18.0939L71.0427 5.88871C71.2208 5.58823 71.4646 5.37472 71.7743 5.2482C72.0918 5.12168 72.4208 5.10192 72.7615 5.1889C73.0866 5.28379 73.3537 5.46961 73.5628 5.74638C73.7718 6.02314 73.8763 6.33944 73.8763 6.69527V22.3877Z" fill="url(#paint1_linear_205_3093)"/>
<path d="M96.1136 22.3877H93.0941V18.2125H82.4795V22.3877H79.46V13.8832C79.46 12.6417 79.6691 11.4991 80.0872 10.4553C80.5052 9.41149 81.0859 8.514 81.8292 7.76278C82.5724 7.01157 83.4512 6.42642 84.4654 6.00732C85.4796 5.58823 86.5868 5.37868 87.7868 5.37868H94.5922C94.8013 5.37868 94.9987 5.41822 95.1845 5.49729C95.3703 5.57636 95.5329 5.68707 95.6723 5.8294C95.8116 5.97174 95.92 6.1378 95.9974 6.32758C96.0749 6.51736 96.1136 6.719 96.1136 6.9325V22.3877ZM82.4795 15.1286H93.0941V8.4626H87.7868C87.6939 8.4626 87.4965 8.47841 87.1945 8.51004C86.9003 8.53376 86.5558 8.60098 86.1609 8.71168C85.7738 8.82239 85.3635 8.9924 84.9299 9.22171C84.4964 9.45103 84.0976 9.76733 83.7337 10.1706C83.3699 10.5739 83.0679 11.08 82.8279 11.6888C82.5956 12.2898 82.4795 13.0213 82.4795 13.8832V15.1286Z" fill="url(#paint2_linear_205_3093)"/>
<path d="M118.653 11.0958C118.653 11.7996 118.568 12.4282 118.397 12.9817C118.227 13.5352 117.995 14.0255 117.7 14.4525C117.414 14.8716 117.081 15.2314 116.702 15.5319C116.322 15.8324 115.924 16.0815 115.506 16.2791C115.095 16.4689 114.677 16.6073 114.251 16.6943C113.833 16.7813 113.438 16.8248 113.067 16.8248L119.373 22.3877H114.704L108.41 16.8248H106.238V13.7408H113.067C113.446 13.7092 113.791 13.6301 114.1 13.5036C114.418 13.3692 114.689 13.1913 114.913 12.9699C115.146 12.7485 115.324 12.4836 115.447 12.1752C115.571 11.8589 115.633 11.4991 115.633 11.0958V9.15055C115.633 8.97658 115.61 8.84611 115.564 8.75913C115.525 8.66424 115.471 8.59702 115.401 8.55749C115.339 8.51004 115.269 8.48237 115.192 8.47446C115.122 8.46655 115.056 8.4626 114.995 8.4626H105.03V22.3877H102.011V6.9325C102.011 6.719 102.05 6.51736 102.127 6.32758C102.204 6.1378 102.309 5.97174 102.441 5.8294C102.58 5.68707 102.742 5.57636 102.928 5.49729C103.114 5.41822 103.315 5.37868 103.532 5.37868H114.995C115.668 5.37868 116.237 5.5052 116.702 5.75824C117.166 6.00337 117.542 6.31571 117.828 6.69527C118.122 7.06693 118.331 7.47021 118.455 7.90512C118.587 8.34003 118.653 8.74727 118.653 9.12683V11.0958Z" fill="url(#paint3_linear_205_3093)"/>
<path d="M138.974 8.4626H132.319V22.3877H129.3V8.4626H122.634V5.37868H138.974V8.4626Z" fill="url(#paint4_linear_205_3093)"/>
<path d="M146.624 12.3296H157.227V5.37891H160.246V22.3879H157.227V15.4372H146.624V22.3879H143.604V5.37891H146.624V12.3296Z" fill="#51A6E3"/>
<path d="M182.484 20.8341C182.484 21.0555 182.445 21.2611 182.368 21.4509C182.29 21.6406 182.182 21.8067 182.042 21.949C181.903 22.0835 181.74 22.1902 181.555 22.2693C181.369 22.3484 181.171 22.3879 180.962 22.3879H174.157C173.514 22.3879 172.864 22.3167 172.206 22.1744C171.548 22.0321 170.909 21.8146 170.29 21.522C169.678 21.2215 169.101 20.842 168.559 20.3834C168.017 19.9247 167.541 19.3831 167.131 18.7584C166.728 18.1258 166.411 17.4062 166.178 16.5996C165.946 15.7852 165.83 14.8797 165.83 13.8834V5.37891H168.85V13.8834C168.85 14.7532 168.966 15.4886 169.198 16.0896C169.438 16.6906 169.74 17.1927 170.104 17.596C170.468 17.9992 170.866 18.3155 171.3 18.5449C171.734 18.7742 172.144 18.9442 172.531 19.0549C172.926 19.1656 173.27 19.2368 173.565 19.2684C173.867 19.2921 174.064 19.304 174.157 19.304H179.464V5.37891H182.484V20.8341Z" fill="#51A6E3"/>
<path d="M205 18.6516C205 19.0312 204.934 19.4384 204.802 19.8733C204.678 20.3082 204.469 20.7115 204.175 21.0832C203.889 21.4548 203.513 21.7672 203.049 22.0202C202.584 22.2653 202.015 22.3879 201.341 22.3879H189.879C189.662 22.3879 189.461 22.3484 189.275 22.2693C189.089 22.1902 188.927 22.0835 188.787 21.949C188.656 21.8067 188.551 21.6406 188.474 21.4509C188.396 21.2611 188.358 21.0555 188.358 20.8341V6.93273C188.358 6.71922 188.396 6.51758 188.474 6.3278C188.551 6.13802 188.656 5.97197 188.787 5.82963C188.927 5.6873 189.089 5.57659 189.275 5.49752C189.461 5.41844 189.662 5.37891 189.879 5.37891H199.983C200.354 5.37891 200.753 5.44612 201.179 5.58055C201.605 5.71497 201.999 5.93243 202.363 6.23291C202.735 6.52549 203.041 6.909 203.281 7.38345C203.529 7.8579 203.652 8.4391 203.652 9.12705V9.70825C203.652 10.2539 203.563 10.843 203.385 11.4756C203.207 12.1003 202.921 12.6933 202.526 13.2548C202.867 13.4683 203.184 13.7253 203.478 14.0257C203.78 14.3262 204.043 14.6742 204.268 15.0695C204.492 15.4649 204.671 15.9117 204.802 16.4098C204.934 16.908 205 17.4576 205 18.0586V18.6516ZM201.98 18.0586C201.98 17.6553 201.918 17.2955 201.794 16.9792C201.67 16.655 201.496 16.3782 201.272 16.1489C201.047 15.9196 200.776 15.7456 200.459 15.627C200.141 15.5005 199.785 15.4372 199.39 15.4372H192.585V12.3296H198.032C198.426 12.3296 198.783 12.2703 199.1 12.1517C199.417 12.0251 199.688 11.8472 199.913 11.6179C200.137 11.3886 200.308 11.1158 200.424 10.7995C200.548 10.4753 200.61 10.1115 200.61 9.70825V9.12705C200.61 8.68423 200.401 8.46283 199.983 8.46283H191.377V19.304H201.341C201.396 19.304 201.461 19.3 201.539 19.2921C201.616 19.2842 201.686 19.2605 201.748 19.221C201.81 19.1814 201.864 19.1142 201.91 19.0193C201.957 18.9244 201.98 18.794 201.98 18.6279V18.0586Z" fill="#51A6E3"/>
<g clip-path="url(#clip0_205_3093)">
<path d="M12.4763 0V5.09091L6.35696 7.72291C6.28171 7.75515 6.28072 7.78909 6.35399 7.82473L20.3452 14.5702L24.9526 16.8891V22.0564L12.4763 27.8727C12.4763 26.0909 12.4268 24.4856 12.4763 22.9091C12.4674 22.8455 12.4763 22.6545 12.4763 22.6545L19.0293 19.7578C19.0399 19.7529 19.0489 19.7457 19.0552 19.7369C19.0616 19.7281 19.0651 19.718 19.0654 19.7076C19.0657 19.6973 19.0628 19.6871 19.057 19.678C19.0511 19.6689 19.0426 19.6613 19.0323 19.656L4.5984 12.6891L0 10.2735V5.54145L12.4763 0Z" fill="#DFECF8"/>
<g filter="url(#filter0_i_205_3093)">
<path d="M12.4766 0C16.2571 1.73261 20.401 3.46352 24.1775 5.19273C24.5518 5.36412 24.8102 5.63818 24.9528 6.01491V16.8891L20.3455 14.5702L20.3485 9.29346C20.3485 9.06272 20.2756 8.83629 20.1375 8.6382C19.9994 8.44011 19.8013 8.27776 19.5643 8.16837C17.4037 7.16546 14.7599 6.11079 12.4766 5.09091V0Z" fill="#51A6E3"/>
</g>
<g filter="url(#filter1_i_205_3093)">
<path d="M0 10.2734L4.5984 12.6891C4.60632 14.515 4.60731 16.3435 4.60137 18.1745C4.5984 18.9 4.76475 19.2105 5.47768 19.5516C8.6522 21.067 11.3811 22.1487 12.4763 22.6544C12.4763 22.6544 12.4763 26.0908 12.4763 27.8726C12.0307 27.7453 11.7812 27.5961 11.5792 27.5011C8.10166 25.8703 4.62018 24.2471 1.13475 22.6316C0.530737 22.3516 0.152488 22.0097 0 21.6058V10.2734Z" fill="#51A6E3"/>
</g>
</g>
<defs>
<filter id="filter0_i_205_3093" x="12.4766" y="0" width="14.4766" height="16.8887" filterUnits="userSpaceOnUse" color-interpolation-filters="sRGB">
<feFlood flood-opacity="0" result="BackgroundImageFix"/>
<feBlend mode="normal" in="SourceGraphic" in2="BackgroundImageFix" result="shape"/>
<feColorMatrix in="SourceAlpha" type="matrix" values="0 0 0 0 0 0 0 0 0 0 0 0 0 0 0 0 0 0 127 0" result="hardAlpha"/>
<feOffset dx="2"/>
<feGaussianBlur stdDeviation="2"/>
<feComposite in2="hardAlpha" operator="arithmetic" k2="-1" k3="1"/>
<feColorMatrix type="matrix" values="0 0 0 0 0 0 0 0 0 0 0 0 0 0 0 0 0 0 0.25 0"/>
<feBlend mode="normal" in2="shape" result="effect1_innerShadow_205_3093"/>
</filter>
<filter id="filter1_i_205_3093" x="0" y="10.2734" width="12.4766" height="19.5996" filterUnits="userSpaceOnUse" color-interpolation-filters="sRGB">
<feFlood flood-opacity="0" result="BackgroundImageFix"/>
<feBlend mode="normal" in="SourceGraphic" in2="BackgroundImageFix" result="shape"/>
<feColorMatrix in="SourceAlpha" type="matrix" values="0 0 0 0 0 0 0 0 0 0 0 0 0 0 0 0 0 0 127 0" result="hardAlpha"/>
<feOffset dy="2"/>
<feGaussianBlur stdDeviation="2"/>
<feComposite in2="hardAlpha" operator="arithmetic" k2="-1" k3="1"/>
<feColorMatrix type="matrix" values="0 0 0 0 0 0 0 0 0 0 0 0 0 0 0 0 0 0 0.25 0"/>
<feBlend mode="normal" in2="shape" result="effect1_innerShadow_205_3093"/>
</filter>
<linearGradient id="paint0_linear_205_3093" x1="32.9648" y1="22.6036" x2="205.515" y2="22.6036" gradientUnits="userSpaceOnUse">
<stop offset="0.164949" stop-color="#DFECF8" stop-opacity="0.7"/>
<stop offset="0.47947" stop-color="white"/>
</linearGradient>
<linearGradient id="paint1_linear_205_3093" x1="32.9648" y1="22.6036" x2="205.515" y2="22.6036" gradientUnits="userSpaceOnUse">
<stop offset="0.164949" stop-color="#DFECF8" stop-opacity="0.7"/>
<stop offset="0.47947" stop-color="white"/>
</linearGradient>
<linearGradient id="paint2_linear_205_3093" x1="32.9648" y1="22.6036" x2="205.515" y2="22.6036" gradientUnits="userSpaceOnUse">
<stop offset="0.164949" stop-color="#DFECF8" stop-opacity="0.7"/>
<stop offset="0.47947" stop-color="white"/>
</linearGradient>
<linearGradient id="paint3_linear_205_3093" x1="32.9648" y1="22.6036" x2="205.515" y2="22.6036" gradientUnits="userSpaceOnUse">
<stop offset="0.164949" stop-color="#DFECF8" stop-opacity="0.7"/>
<stop offset="0.47947" stop-color="white"/>
</linearGradient>
<linearGradient id="paint4_linear_205_3093" x1="32.9648" y1="22.6036" x2="205.515" y2="22.6036" gradientUnits="userSpaceOnUse">
<stop offset="0.164949" stop-color="#DFECF8" stop-opacity="0.7"/>
<stop offset="0.47947" stop-color="white"/>
</linearGradient>
<clipPath id="clip0_205_3093">
<rect width="24.9526" height="28" fill="white"/>
</clipPath>
</defs>
</svg>
