<svg width="76" height="76" viewBox="0 0 76 76" fill="none" xmlns="http://www.w3.org/2000/svg">
<circle cx="38" cy="38" r="38" fill="url(#paint0_radial_340_2706)" fill-opacity="0.44"/>
<ellipse cx="38.0015" cy="38.0016" rx="14.5153" ry="14.5153" fill="url(#paint1_radial_340_2706)" fill-opacity="0.44"/>
<path d="M58.489 50.1184C58.4911 50.3865 58.5629 50.4066 58.7043 50.1786C59.477 48.9351 59.8633 47.5154 59.8633 45.9194C59.8697 37.1879 59.8697 28.5228 59.8633 19.9242C59.857 15.9564 56.9025 12.5839 52.846 12.5934C43.0948 12.6145 33.2686 12.6124 23.3675 12.5871C19.3047 12.5776 16.043 15.5257 16.0462 19.6646C16.0483 22.4175 15.9981 27.1146 15.9917 29.7661C15.9917 29.8295 15.8967 29.7661 15.8334 29.7661L13.6167 30.0828C13.5639 30.0828 13.6167 27.919 13.6167 27.8662C13.6526 25.7889 13.6627 23.4984 13.6205 21.1529C13.5867 19.1474 13.7799 17.564 14.2 16.4029C15.2197 13.6036 17.6548 11.3046 20.5112 10.5319C21.516 10.2617 22.8207 10.1287 24.4252 10.1329C33.7753 10.1667 43.0853 10.172 52.3552 10.1487C55.4395 10.1403 57.9369 11.2075 59.8475 13.3502C60.7996 14.4142 61.472 15.6134 61.8647 16.9476C62.1391 17.8765 62.2742 19.0312 62.27 20.4119C62.2447 29.1688 62.2436 37.628 62.2668 45.7896C62.2763 48.9689 60.9748 51.6764 58.7075 53.9184C58.585 54.0409 58.5217 54.1939 58.5175 54.3776C58.471 56.4655 58.4721 58.5238 58.5207 60.5526C58.5502 61.7158 58.3919 62.6246 58.0457 63.2791C56.8328 65.5749 54.7872 65.5749 52.4945 65.5464C51.5276 65.5337 50.7644 65.3986 50.205 65.1411C48.3905 64.2987 47.6368 62.4779 47.8712 60.5431C47.888 60.3995 47.8237 60.3277 47.678 60.3277L34.5167 60.4828C34.4407 60.4828 34.6751 60.3984 34.6751 60.3245L36.7334 57.9495C36.7334 57.8967 37.266 57.8862 37.3167 57.8862H56C56.0235 57.8862 56.0469 57.8816 56.0686 57.8724C56.0903 57.8633 56.11 57.85 56.1265 57.8332C56.143 57.8164 56.156 57.7965 56.1647 57.7746C56.1735 57.7527 56.1777 57.7293 56.1773 57.7057C56.1625 53.4877 56.1678 49.2792 56.1932 45.0802C56.2016 43.6046 56.0918 42.0782 55.8638 40.5012C55.2284 36.1186 54.6299 31.9238 54.0683 27.9169C53.8783 26.5426 52.9315 25.8142 51.6332 25.8142C42.644 25.8269 33.4565 25.829 24.0705 25.8206C22.7183 25.8206 21.8602 26.7896 21.7683 28.1639C21.7641 28.2167 21.7356 28.242 21.6828 28.2399L19.4751 28.4995C19.4428 28.911 19.4461 28.0636 19.4503 28.0214C19.596 26.018 20.5207 24.6067 22.2243 23.7876C22.8513 23.4857 23.8224 23.339 25.1377 23.3474C33.7573 23.396 42.2187 23.3928 50.5217 23.3379C52.789 23.3221 54.594 23.7116 55.7245 25.6211C56.0792 26.2206 56.3093 26.911 56.4148 27.6921C57.008 32.0874 57.6192 36.4511 58.2483 40.7831C58.6948 43.8421 58.4732 46.9992 58.489 50.1184ZM56.114 60.4196L50.4583 60.4386C50.4219 60.4394 50.3873 60.4544 50.3618 60.4805C50.3364 60.5065 50.3221 60.5415 50.3222 60.5779L50.3253 61.4107C50.3271 61.8936 50.5102 62.356 50.8345 62.6963C51.1587 63.0366 51.5975 63.2268 52.0543 63.2252L54.5433 63.2189C54.7696 63.2181 54.9934 63.1702 55.2022 63.078C55.4109 62.9857 55.6003 62.8509 55.7597 62.6812C55.9191 62.5116 56.0453 62.3104 56.131 62.0891C56.2168 61.8679 56.2605 61.6309 56.2597 61.3917L56.2565 60.5589C56.2565 60.5403 56.2528 60.522 56.2456 60.5048C56.2384 60.4877 56.2278 60.4722 56.2146 60.4593C56.2013 60.4463 56.1856 60.4361 56.1683 60.4293C56.151 60.4224 56.1326 60.4192 56.114 60.4196Z" fill="#042F6C"/>
<path d="M52.0005 41.5849L50.4995 29.6402C50.4848 29.5283 50.4214 29.4724 50.3095 29.4724C42.9185 29.3964 34.9892 29.2961 26.5215 29.1715C25.4069 29.1557 24.384 28.8422 23.3137 28.6269C23.2441 28.6129 23.1827 28.5727 23.1425 28.5147C23.1022 28.4568 23.0864 28.3857 23.0984 28.3165C23.2409 27.4679 23.8299 27.072 24.6247 27.0752C33.9854 27.0963 42.9101 27.0995 51.3989 27.0847C51.7416 27.084 52.0729 27.2079 52.331 27.4334C52.5891 27.6589 52.7564 27.9705 52.8017 28.3102L54.7239 42.8135C54.7455 42.9772 54.732 43.1436 54.6841 43.3016C54.6362 43.4596 54.5552 43.6055 54.4463 43.7297C54.3375 43.8538 54.2034 43.9532 54.053 44.0213C53.9026 44.0894 53.7395 44.1246 53.5744 44.1245L38.8367 44.1277C38.8165 44.1277 38.7972 44.1194 38.783 44.1045C38.7687 44.0897 38.7607 44.0695 38.7607 44.0485L38.786 41.8255C38.7869 41.7984 38.7982 41.7726 38.8177 41.7537C38.8373 41.7348 38.8634 41.7242 38.8905 41.7242H51.877C51.8947 41.7244 51.9121 41.7207 51.9283 41.7136C51.9444 41.7064 51.9588 41.6958 51.9705 41.6826C51.9822 41.6694 51.9909 41.6539 51.9961 41.637C52.0013 41.6202 52.0028 41.6024 52.0005 41.5849Z" fill="#042F6C"/>
<path d="M43.4822 51.0709V49.4876C43.4822 49.3863 43.4304 49.3356 43.327 49.3356L37.3832 49.3388C37.2945 49.3388 37.2438 49.2944 37.2312 49.2058C37.1467 48.5323 36.9715 47.8473 36.7055 47.1506C36.6759 47.0704 36.7044 47.0303 36.791 47.0303L44.3815 47.0366C44.5502 47.0366 44.7172 47.07 44.873 47.1348C45.0288 47.1996 45.1703 47.2946 45.2895 47.4143C45.4086 47.534 45.503 47.6761 45.5673 47.8325C45.6316 47.9888 45.6644 48.1563 45.664 48.3254L45.6577 52.3788C45.6573 52.5265 45.6276 52.6727 45.5705 52.809C45.5134 52.9453 45.4299 53.0689 45.3249 53.1728C45.2198 53.2766 45.0952 53.3587 44.9583 53.4143C44.8214 53.4699 44.6749 53.4979 44.5272 53.4966L37.6365 53.4301C37.5457 53.428 37.4982 53.3826 37.494 53.2939L37.3832 51.3053C37.3823 51.2914 37.3843 51.2776 37.389 51.2645C37.3937 51.2515 37.401 51.2396 37.4105 51.2295C37.42 51.2194 37.4315 51.2114 37.4442 51.2059C37.4569 51.2004 37.4706 51.1976 37.4845 51.1976L43.3397 51.2103C43.4347 51.2103 43.4822 51.1638 43.4822 51.0709Z" fill="#042F6C"/>
<path d="M55.4332 50.869C55.4332 51.388 55.331 51.9019 55.1323 52.3814C54.9337 52.8608 54.6426 53.2965 54.2757 53.6635C53.9087 54.0305 53.473 54.3216 52.9935 54.5202C52.5141 54.7188 52.0002 54.821 51.4812 54.821C50.433 54.821 49.4278 54.4046 48.6867 53.6635C47.9455 52.9223 47.5292 51.9171 47.5292 50.869C47.5292 49.8209 47.9455 48.8156 48.6867 48.0745C49.4278 47.3334 50.433 46.917 51.4812 46.917C52.0002 46.917 52.5141 47.0192 52.9935 47.2178C53.473 47.4164 53.9087 47.7075 54.2757 48.0745C54.6426 48.4415 54.9337 48.8772 55.1323 49.3566C55.331 49.8361 55.4332 50.35 55.4332 50.869ZM53.644 50.9767C53.644 50.4039 53.4165 49.8546 53.0115 49.4495C52.6064 49.0445 52.0571 48.817 51.4843 48.817C50.9116 48.817 50.3622 49.0445 49.9572 49.4495C49.5522 49.8546 49.3247 50.4039 49.3247 50.9767C49.3247 51.5494 49.5522 52.0988 49.9572 52.5038C50.3622 52.9088 50.9116 53.1363 51.4843 53.1363C52.0571 53.1363 52.6064 52.9088 53.0115 52.5038C53.4165 52.0988 53.644 51.5494 53.644 50.9767Z" fill="#042F6C"/>
<path d="M51.4844 53.1367C52.6771 53.1367 53.644 52.1698 53.644 50.977C53.644 49.7843 52.6771 48.8174 51.4844 48.8174C50.2916 48.8174 49.3247 49.7843 49.3247 50.977C49.3247 52.1698 50.2916 53.1367 51.4844 53.1367Z" fill="white"/>
<path d="M56.114 60.42C56.1325 60.4195 56.151 60.4228 56.1683 60.4296C56.1855 60.4365 56.2013 60.4467 56.2146 60.4596C56.2278 60.4726 56.2384 60.4881 56.2456 60.5052C56.2528 60.5223 56.2565 60.5407 56.2565 60.5593L56.2596 61.3921C56.2605 61.6313 56.2168 61.8682 56.131 62.0895C56.0452 62.3107 55.9191 62.512 55.7597 62.6816C55.6003 62.8513 55.4108 62.9861 55.2021 63.0784C54.9934 63.1706 54.7696 63.2185 54.5433 63.2193L52.0543 63.2256C51.5975 63.2272 51.1587 63.037 50.8345 62.6967C50.5102 62.3564 50.3271 61.894 50.3253 61.4111L50.3221 60.5783C50.3221 60.5419 50.3364 60.5069 50.3618 60.4809C50.3873 60.4548 50.4219 60.4398 50.4583 60.439L56.114 60.42Z" fill="white"/>
<path d="M43.1446 33.5708C43.0466 32.2312 41.9947 31.2129 40.6686 30.9993C38.8846 30.712 36.3836 30.246 34.4923 29.6442C32.2673 28.9362 29.1985 27.5031 27.4458 26.65C26.5778 26.2275 25.5635 26.2275 24.6955 26.65C22.9428 27.5031 19.8739 28.9362 17.649 29.6442C15.7577 30.246 13.2567 30.712 11.4726 30.9993C10.1466 31.2129 9.09468 32.2312 8.99662 33.5708C8.5075 40.2525 8.5564 59.9036 25.1972 65.5861C25.7558 65.7769 26.3855 65.7769 26.9441 65.5861C43.5849 59.9036 43.6338 40.2525 43.1446 33.5708Z" fill="#C8D1EA"/>
<path fill-rule="evenodd" clip-rule="evenodd" d="M28.3323 59.9947C29.0829 59.6374 29.7796 59.2353 30.4261 58.795L24.1714 31.9126C23.5254 32.2273 22.777 32.5797 22.0294 32.9052L28.3323 59.9947ZM26.4163 31.3623L32.4218 57.1734C33.9583 55.694 35.12 53.9623 35.9943 52.1301L31.6678 33.5353C30.2993 33.0332 28.6425 32.2484 27.4881 31.6756C27.148 31.5068 26.7849 31.4024 26.4163 31.3623Z" fill="white"/>
<path d="M38.47 37.2272C38.3963 35.8852 37.3461 34.8584 36.0231 34.6217C34.8119 34.405 33.3313 34.0952 32.1688 33.7121C30.7238 33.2359 28.7873 32.3223 27.4876 31.6773C26.5955 31.2346 25.5451 31.2346 24.653 31.6773C23.3533 32.3223 21.4168 33.2359 19.9719 33.7121C18.8094 34.0952 17.3288 34.405 16.1176 34.6217C14.7946 34.8584 13.7443 35.8852 13.6706 37.2272C13.3722 42.661 13.809 56.3487 25.1756 60.5735C25.7478 60.7862 26.3929 60.7862 26.965 60.5735C38.3316 56.3487 38.7685 42.661 38.47 37.2272Z" stroke="#2571BC" stroke-width="2"/>
<defs>
<radialGradient id="paint0_radial_340_2706" cx="0" cy="0" r="1" gradientUnits="userSpaceOnUse" gradientTransform="translate(38 38) rotate(90) scale(38)">
<stop offset="0.458333" stop-color="#A0D0FF"/>
<stop offset="1" stop-color="white"/>
</radialGradient>
<radialGradient id="paint1_radial_340_2706" cx="0" cy="0" r="1" gradientUnits="userSpaceOnUse" gradientTransform="translate(38.0015 38.0016) rotate(90) scale(14.5153 14.5153)">
<stop offset="0.458333" stop-color="#A0D0FF"/>
<stop offset="1" stop-color="white"/>
</radialGradient>
</defs>
</svg>
