<svg width="40" height="40" viewBox="0 0 40 40" fill="none" xmlns="http://www.w3.org/2000/svg">
<path d="M27.4999 26.2071V26.5H12.4999V26.2071L14.3535 24.3536L14.4999 24.2071V24V19C14.4999 16.0944 16.0221 13.7809 18.6152 13.1665L18.9999 13.0754V12.68V12C18.9999 11.4461 19.4461 11 19.9999 11C20.5538 11 20.9999 11.4461 20.9999 12V12.68V13.0751L21.3843 13.1664C23.968 13.7808 25.4999 16.1048 25.4999 19V24V24.2071L25.6464 24.3536L27.4999 26.2071ZM21.4134 28.5C21.206 29.0806 20.6488 29.5 19.9999 29.5C19.3443 29.5 18.7907 29.0813 18.5853 28.5H21.4134Z" stroke="#12385E"/>
</svg>
